<svg width="152" height="152" viewBox="0 0 152 152" fill="none" xmlns="http://www.w3.org/2000/svg">
<path d="M8.61886 108C13.1776 108 17.6917 107.102 21.9034 105.357C26.1152 103.613 29.942 101.056 33.1656 97.832C36.3891 94.6085 38.9461 90.7816 40.6907 86.5699C42.4352 82.3582 43.3331 77.8441 43.3331 73.2853C43.3331 68.7266 42.4352 64.2125 40.6907 60.0007C38.9461 55.789 36.3891 51.9621 33.1656 48.7386C29.942 45.5151 26.1152 42.9581 21.9034 41.2135C17.6917 39.469 13.1776 38.571 8.61886 38.571C-0.58794 38.571 -9.41766 42.2284 -15.9278 48.7386C-22.438 55.2488 -26.0954 64.0785 -26.0954 73.2853C-26.0954 82.4921 -22.438 91.3218 -15.9278 97.832C-9.41766 104.342 -0.58794 108 8.61886 108ZM67.2474 166.775C73.1334 168.588 80.4697 169.714 89.6189 169.714C135.905 169.714 135.905 140.785 135.905 140.785C135.905 136.182 134.076 131.767 130.821 128.512C127.566 125.257 123.151 123.428 118.547 123.428H67.2011C71.6847 128.093 74.1845 134.315 74.1749 140.785V145.067L74.1517 145.707C73.9889 148.284 73.5912 150.84 72.9637 153.344C71.7701 158.088 69.8441 162.617 67.2551 166.767M116.619 80.9996C116.619 84.5453 115.92 88.0563 114.564 91.3321C113.207 94.6079 111.218 97.5843 108.711 100.091C106.204 102.599 103.227 104.587 99.9513 105.944C96.6755 107.301 93.1646 108 89.6189 108C86.0732 108 82.5622 107.301 79.2864 105.944C76.0106 104.587 73.0341 102.599 70.527 100.091C68.0198 97.5843 66.031 94.6079 64.6741 91.3321C63.3172 88.0563 62.6189 84.5453 62.6189 80.9996C62.6189 73.8388 65.4635 66.9712 70.527 61.9077C75.5904 56.8443 82.458 53.9996 89.6189 53.9996C96.7797 53.9996 103.647 56.8443 108.711 61.9077C113.774 66.9712 116.619 73.8388 116.619 80.9996ZM-49.2383 140.785C-49.2383 136.182 -47.4096 131.767 -44.1545 128.512C-40.8994 125.257 -36.4845 123.428 -31.8811 123.428H49.1189C53.7223 123.428 58.1371 125.257 61.3922 128.512C64.6473 131.767 66.476 136.182 66.476 140.785V144.642C66.476 144.642 66.476 185.142 8.61886 185.142C-49.2383 185.142 -49.2383 144.642 -49.2383 144.642V140.785Z" fill="#19644F"/>
</svg>
