<svg width="152" height="152" viewBox="0 0 152 152" fill="none" xmlns="http://www.w3.org/2000/svg">
<path d="M29.717 139.5C33.467 143.25 38.192 145.014 43.892 144.792C49.592 144.57 53.717 142.506 56.267 138.6L94.292 81.675C95.642 79.575 95.456 77.661 93.734 75.933C92.012 74.205 90.098 74.019 87.992 75.375L31.067 113.4C27.167 116.1 25.031 120.189 24.659 125.667C24.287 131.145 25.973 135.756 29.717 139.5ZM-18.433 180C-21.733 180 -24.769 179.286 -27.541 177.858C-30.313 176.43 -32.527 174.294 -34.183 171.45C-38.083 164.4 -41.083 157.089 -43.183 149.517C-45.283 141.945 -46.333 134.106 -46.333 126C-46.333 113.55 -43.969 101.85 -39.241 90.9C-34.513 79.95 -28.102 70.425 -20.008 62.325C-11.914 54.225 -2.389 47.814 8.56699 43.092C19.523 38.37 31.223 36.006 43.667 36C55.967 36 67.517 38.325 78.317 42.975C89.117 47.625 98.567 53.964 106.667 61.992C114.767 70.02 121.217 79.395 126.017 90.117C130.817 100.839 133.292 112.35 133.442 124.65C133.592 132.9 132.656 140.964 130.634 148.842C128.612 156.72 125.498 164.256 121.292 171.45C119.642 174.3 117.431 176.439 114.659 177.867C111.887 179.295 108.845 180.006 105.533 180H-18.433Z" fill="#19644F"/>
</svg>
