<svg width="152" height="152" viewBox="0 0 152 152" fill="none" xmlns="http://www.w3.org/2000/svg">
<path d="M44 18C52.064 18 59.876 19.062 67.31 21.051L48.176 40.176C46.7244 41.6334 45.4441 43.2519 44.36 45H44C31.5398 45 19.3594 48.6949 8.99908 55.6174C-1.36122 62.5399 -9.43609 72.3792 -14.2044 83.8909C-18.9727 95.4027 -20.2203 108.07 -17.7895 120.291C-15.3586 132.511 -9.35844 143.737 -0.547729 152.548C8.26298 161.358 19.4885 167.359 31.7093 169.789C43.9301 172.22 56.5973 170.973 68.1091 166.204C79.6208 161.436 89.4601 153.361 96.3826 143.001C103.305 132.641 107 120.46 107 108V107.64C108.74 106.56 110.345 105.285 111.815 103.815L130.949 84.69C132.938 92.124 134 99.936 134 108C134 157.707 93.707 198 44 198C-5.707 198 -46 157.707 -46 108C-46 58.293 -5.707 18 44 18ZM40.274 63.153C40.274 70.812 39.896 78.579 40.31 86.229L35.45 91.089C33.7782 92.7608 32.4521 94.7455 31.5473 96.9298C30.6425 99.1141 30.1769 101.455 30.1769 103.819C30.1769 106.184 30.6425 108.525 31.5473 110.709C32.4521 112.893 33.7782 114.878 35.45 116.55C37.1218 118.222 39.1065 119.548 41.2908 120.453C43.4751 121.357 45.8162 121.823 48.1805 121.823C50.5448 121.823 52.8859 121.357 55.0702 120.453C57.2545 119.548 59.2392 118.222 60.911 116.55L65.771 111.69C73.421 112.104 81.179 111.726 88.847 111.726C88.136 120.279 84.994 128.45 79.7914 135.276C74.5889 142.102 67.5428 147.298 59.4842 150.251C51.4256 153.204 42.6906 153.791 34.3095 151.942C25.9284 150.094 18.2506 145.887 12.1819 139.818C6.11306 133.749 1.90634 126.072 0.0578117 117.691C-1.79071 109.309 -1.20393 100.574 1.74895 92.5158C4.70183 84.4572 9.89764 77.4111 16.7236 72.2086C23.5496 67.006 31.7209 63.864 40.274 63.153ZM102.536 19.143C104.179 19.8241 105.583 20.9766 106.571 22.4551C107.56 23.9335 108.088 25.6716 108.089 27.45V43.92H124.55C126.33 43.9204 128.069 44.4484 129.549 45.4374C131.029 46.4263 132.182 47.8318 132.863 49.4761C133.544 51.1204 133.722 52.9297 133.375 54.6753C133.028 56.4209 132.171 58.0243 130.913 59.283L99.08 91.08C97.3926 92.7679 95.1038 93.7165 92.717 93.717H71L54.548 110.178C52.8592 111.867 50.5688 112.816 48.1805 112.816C45.7922 112.816 43.5018 111.867 41.813 110.178C40.1242 108.489 39.1755 106.199 39.1755 103.811C39.1755 101.422 40.1242 99.1318 41.813 97.443L58.274 81V59.274C58.2731 58.0907 58.5055 56.9188 58.958 55.8254C59.4105 54.732 60.0741 53.7386 60.911 52.902L92.726 21.087C93.9846 19.8276 95.5885 18.9698 97.3347 18.6222C99.0809 18.2745 100.891 18.4527 102.536 19.134" fill="#19644F"/>
</svg>
