<svg width="165" height="42" viewBox="0 0 165 42" fill="none" xmlns="http://www.w3.org/2000/svg">
<g clip-path="url(#clip0_591_5096)">
<path d="M39.217 10.5758L38.3061 9.00711C38.0531 8.55169 37.4965 8.39988 37.0411 8.65289C36.9905 8.70349 36.8893 8.75409 36.8387 8.8047L34.764 10.8794C34.4604 11.183 34.4098 11.689 34.6628 12.0433C35.4218 13.2071 36.029 14.4722 36.4845 15.7878C39.3688 24.3396 34.764 33.5999 26.2122 36.4842C24.5423 37.0408 22.7712 37.3445 21.0001 37.3445C18.3182 37.3445 15.6869 36.6866 13.3592 35.4216L16.9013 31.8794C22.923 34.1565 29.6531 31.1204 31.9302 25.0987C33.0435 22.1131 32.8917 18.7734 31.5254 15.889C31.323 15.4336 30.7664 15.2312 30.2604 15.4336C30.1592 15.4842 30.058 15.5348 30.0074 15.636L27.8821 17.7107C27.629 17.9637 27.5784 18.2673 27.629 18.571L27.8314 19.33C28.6917 23.0746 26.364 26.8698 22.6194 27.73C20.8989 28.1348 19.0772 27.8818 17.5592 26.971L16.6483 26.4143C16.2941 26.2119 15.8387 26.2625 15.5351 26.5661L6.93265 35.1686C6.57844 35.5228 6.57844 36.13 6.93265 36.4842C6.98326 36.5348 6.98326 36.5348 7.03386 36.5854L8.29892 37.5469C11.8917 40.4818 16.3953 41.9999 21.0001 41.9999C32.5881 41.9999 42.0001 32.5878 42.0001 20.9493C42.0001 17.3059 41.0387 13.7637 39.217 10.5758Z" fill="#0D352A"/>
<path d="M33.7508 4.35181C30.1075 1.51807 25.6038 0 20.999 0C9.41107 0 -0.000976562 9.41205 -0.000976562 21.0506C-0.000976562 24.694 0.960469 28.2867 2.73155 31.4241L3.6424 32.9928C3.89541 33.4482 4.45203 33.6 4.90746 33.347C4.95806 33.2964 5.05926 33.2458 5.10987 33.1952L7.18457 31.1205C7.48818 30.8169 7.53878 30.3108 7.28577 29.9566C6.52673 28.7928 5.91951 27.5277 5.46408 26.212C2.57975 17.6602 7.18457 8.4 15.7364 5.51566C17.4063 4.95904 19.1773 4.65542 20.9484 4.65542C23.6303 4.65542 26.2617 5.31325 28.5894 6.57831L25.0472 10.1205C19.0255 7.84337 12.2954 10.8795 10.0183 16.9012C9.51228 18.2169 9.25926 19.6337 9.25926 21.0506C9.25926 21.253 9.30987 22.1133 9.30987 22.2651C9.46167 23.5807 9.81589 24.8964 10.4231 26.1108C10.6255 26.5663 11.1822 26.7687 11.6882 26.5663C11.7894 26.5157 11.8906 26.4651 11.9412 26.3639L14.0665 24.2386C14.3195 23.9855 14.3701 23.6819 14.3195 23.3783L14.1677 22.6193C13.3075 18.8747 15.6352 15.0795 19.3797 14.2193C21.1002 13.8145 22.9219 14.0675 24.44 14.9783L25.3508 15.5349C25.705 15.7374 26.1605 15.6867 26.4641 15.3831L35.0665 6.78072C35.4207 6.42651 35.4207 5.81928 35.0665 5.46506C35.0159 5.41446 35.0159 5.41446 34.9653 5.36386L33.7508 4.35181Z" fill="#0D352A"/>
<path d="M69.1222 26.8193C68.8186 26.5663 68.3126 26.5663 68.009 26.8699C66.6427 27.9325 65.074 28.894 62.7969 28.894C58.5969 28.894 55.2066 25.3518 55.2066 21.0506C55.2066 16.7494 58.5969 13.1566 62.7969 13.1566C64.6186 13.1566 66.5415 13.9157 68.009 15.1807C68.1608 15.3831 68.4138 15.4843 68.6668 15.4843C68.8692 15.4843 69.0716 15.3325 69.2234 15.1807L70.5897 13.7639C70.7415 13.612 70.8427 13.359 70.8427 13.106C70.8427 12.853 70.7415 12.6506 70.5391 12.4482C68.1608 10.3735 65.7825 9.46265 62.7969 9.46265C56.421 9.46265 51.209 14.6747 51.209 21.1012C51.209 27.4771 56.3704 32.6892 62.7969 32.6892C65.7319 32.7398 68.515 31.5759 70.5897 29.5518C70.7921 29.3494 70.8933 29.0964 70.8427 28.8434C70.8427 28.641 70.7415 28.4386 70.5897 28.2867L69.1222 26.8193Z" fill="#0D352A"/>
<path d="M79.0375 9.71558H76.9628C76.5074 9.71558 76.1025 10.1204 76.1025 10.5758V31.424C76.1025 31.8794 76.5074 32.2843 76.9628 32.2843H79.0375C79.4929 32.2843 79.8977 31.8794 79.8977 31.424V10.5758C79.8977 10.1204 79.5435 9.71558 79.0375 9.71558Z" fill="#0D352A"/>
<path d="M103.482 16.7494C103.482 12.9036 100.294 9.7157 96.3976 9.7157H87.8964C87.3903 9.7157 87.0361 10.1205 87.0361 10.5759V31.4241C87.0361 31.9302 87.441 32.2844 87.8964 32.2844H89.9205C90.3759 32.2844 90.7807 31.8796 90.7807 31.4241V23.682H95.0313L99.1301 31.8796C99.2819 32.1326 99.5855 32.335 99.8891 32.335H102.318C102.622 32.335 102.925 32.1832 103.077 31.9302C103.229 31.6265 103.229 31.3229 103.077 31.0193L98.9277 23.2771C101.761 22.0121 103.482 19.5326 103.482 16.7494ZM99.6361 16.8C99.6361 18.7735 98.0169 20.4434 96.094 20.4434H90.7807V13.3591H96.1446C98.0169 13.3085 99.6361 14.9277 99.6361 16.8Z" fill="#0D352A"/>
<path d="M125.695 26.8193C125.392 26.5663 124.886 26.5663 124.582 26.8699C123.216 27.9325 121.647 28.894 119.37 28.894C115.17 28.894 111.78 25.3518 111.78 21.0506C111.78 16.7494 115.17 13.1566 119.319 13.1566C121.141 13.1566 123.064 13.9157 124.531 15.1807C124.683 15.3831 124.936 15.4843 125.189 15.4843C125.392 15.4843 125.594 15.3325 125.746 15.1807L127.112 13.7639C127.264 13.612 127.365 13.359 127.365 13.106C127.365 12.853 127.264 12.6506 127.062 12.4482C124.683 10.3735 122.305 9.46265 119.319 9.46265C112.943 9.46265 107.731 14.6747 107.731 21.1012C107.731 27.4771 112.893 32.6892 119.319 32.6892C122.254 32.7398 125.037 31.5759 127.112 29.5518C127.315 29.3494 127.416 29.0964 127.365 28.8434C127.365 28.641 127.264 28.4386 127.112 28.2867L125.695 26.8193Z" fill="#0D352A"/>
<path d="M144.67 28.7927H136.472V10.5758C136.472 10.1204 136.067 9.71558 135.612 9.71558H133.537C133.031 9.71558 132.677 10.1204 132.677 10.5758V31.424C132.677 31.93 133.082 32.2843 133.537 32.2843H144.67C145.176 32.2843 145.53 31.8794 145.53 31.424V29.7035C145.53 29.1975 145.176 28.7927 144.67 28.7927Z" fill="#0D352A"/>
<path d="M163.193 13.2578C163.699 13.2578 164.053 12.853 164.053 12.3976V10.6265C164.053 10.1205 163.648 9.76624 163.193 9.76624H150.694C150.188 9.76624 149.834 10.1711 149.834 10.6265V31.4747C149.834 31.9807 150.239 32.3349 150.694 32.3349H163.193C163.699 32.3349 164.053 31.9301 164.053 31.4747V29.7542C164.053 29.2482 163.648 28.8939 163.193 28.8939H153.579V22.6192H161.624C162.13 22.6192 162.485 22.2144 162.485 21.759V19.9879C162.485 19.5325 162.08 19.1277 161.624 19.1277H153.579V13.2578H163.193Z" fill="#0D352A"/>
</g>
<defs>
<clipPath id="clip0_591_5096">
<rect width="164.053" height="42" fill="white"/>
</clipPath>
</defs>
</svg>
