<svg width="48" height="48" viewBox="0 0 48 48" fill="none" xmlns="http://www.w3.org/2000/svg">
<g clip-path="url(#clip0_591_5118)">
<path d="M24.0663 7.57095e-06L18.9024 14.4781L22.4127 14.4792C24.9414 14.4799 26.0175 16.4736 25.2212 18.7064L20.0866 33.1024H14.9197L20.569 17.2621H17.9087L12.2599 33.1024H7.04845L18.6397 0.600447C7.96526 3.03558 -0.000976562 12.5868 -0.000976562 23.999C-0.000976562 35.2336 7.71854 44.6639 18.1424 47.2785L29.8532 14.3974H38.3345C40.0887 14.3974 42.295 15.5802 41.3416 18.2722L36.5797 31.7177C35.9715 33.4352 34.5256 33.7833 33.3738 33.7833H28.1599L23.103 47.9815C23.4008 47.9924 23.6991 47.9999 23.9993 47.9999C37.2543 47.9999 47.9998 37.2549 47.9998 23.9994C47.9998 10.7665 37.2903 0.0358787 24.0656 -0.00012207L24.0663 7.57095e-06ZM34.0577 17.2232L29.1391 31.0302H31.7583L36.678 17.2232H34.0577Z" fill="#0D352A"/>
</g>
<defs>
<clipPath id="clip0_591_5118">
<rect width="48.001" height="48" fill="white"/>
</clipPath>
</defs>
</svg>
