<svg width="226" height="32" viewBox="0 0 226 32" fill="none" xmlns="http://www.w3.org/2000/svg">
<g clip-path="url(#clip0_591_5127)">
<path d="M10.208 17.0241L8.64 26.1121H0L4.576 0.0960525H17.024C18.656 0.0640525 20.288 0.192053 21.888 0.416053C23.04 0.576053 24.128 0.928052 25.152 1.47205C25.92 1.85605 26.528 2.46405 26.976 3.23205C27.392 4.00005 27.584 4.86405 27.552 5.72805C27.552 6.33605 27.488 6.91205 27.36 7.48805C27.104 8.92805 26.496 10.3041 25.6 11.4561C24.64 12.6401 23.328 13.4721 21.856 13.8241C22.368 14.0161 22.848 14.2081 23.264 14.4321C23.68 14.6241 24.064 14.8801 24.384 15.2001C24.704 15.5201 24.928 15.9361 25.088 16.3521C25.28 16.9281 25.376 17.5041 25.376 18.1121C25.344 18.9761 25.28 19.8721 25.088 20.7361L24.64 23.0401C24.544 23.5201 24.512 24.0001 24.512 24.4801C24.512 25.0241 24.736 25.3441 25.216 25.3441L25.088 26.1441H16.32C16.288 25.8561 16.256 25.6001 16.256 25.3121C16.256 24.8961 16.288 24.3841 16.352 23.7441C16.416 23.1041 16.48 22.3681 16.672 21.6001C16.8 20.9281 16.864 20.2241 16.864 19.5521C16.928 18.7841 16.608 18.0481 16 17.6001C15.008 17.1521 13.92 16.9601 12.832 17.0561C12.832 17.0241 10.208 17.0241 10.208 17.0241ZM11.232 11.3281H14.624C15.712 11.3601 16.768 11.1681 17.76 10.7841C18.496 10.4321 19.008 9.72805 19.104 8.89605C19.136 8.70405 19.136 8.51205 19.136 8.35205C19.168 7.71205 18.848 7.07205 18.304 6.72005C17.632 6.33605 16.896 6.14405 16.128 6.17605H12.096L11.232 11.3281ZM39.616 7.16805H46.592L46.08 10.1121C47.008 9.05605 48.096 8.19205 49.312 7.48805C50.496 6.88005 51.808 6.59205 53.152 6.62405C54.848 6.46405 56.576 7.00805 57.888 8.09605C58.944 9.28005 59.488 10.8481 59.36 12.4161C59.36 13.2161 59.296 13.9841 59.136 14.7521L57.152 26.0801H49.568L51.328 16.0961C51.392 15.6801 51.424 15.2641 51.424 14.8481C51.456 14.2721 51.296 13.6961 50.976 13.2161C50.56 12.7361 49.92 12.4801 49.28 12.5761C48.32 12.4801 47.36 12.8641 46.72 13.6001C46.112 14.4321 45.728 15.4241 45.6 16.4801L43.936 26.1121H36.32L39.616 7.16805ZM66.496 26.6241V26.7201C66.496 27.0081 66.624 27.2641 66.816 27.4561C67.232 27.8401 67.808 28.0001 68.384 27.9361C69.28 28.0001 70.176 27.7121 70.848 27.1041C71.52 26.3041 71.936 25.3121 72.064 24.2561L72.352 22.7201C71.648 23.2961 70.848 23.7761 70.016 24.1281C68.896 24.5761 67.712 24.7681 66.496 24.7361C65.472 24.7361 64.448 24.5761 63.488 24.1921C62.688 23.8721 61.952 23.3601 61.344 22.7201C60.768 22.0801 60.32 21.3121 60.032 20.4801C59.744 19.5841 59.616 18.6241 59.616 17.6961C59.616 17.3761 59.616 17.0561 59.648 16.7361L59.776 15.7761C59.968 14.5921 60.32 13.4081 60.8 12.2881C61.28 11.1681 61.952 10.1121 62.816 9.21605C63.68 8.28805 64.736 7.55205 65.888 7.00805C67.2 6.43205 68.608 6.14405 70.016 6.17605C71.104 6.14405 72.192 6.43205 73.152 6.97605C74.048 7.52005 74.784 8.25605 75.328 9.15205L75.744 6.68805H82.432L79.744 21.9201C79.52 23.2641 79.2 24.5761 78.816 25.8881C78.432 27.0721 77.824 28.1601 76.992 29.0881C76.064 30.0801 74.88 30.8161 73.6 31.2321C70.368 32.1281 66.976 32.2561 63.712 31.5521C62.72 31.3281 61.792 30.9441 60.928 30.4001C60.256 29.9841 59.744 29.4081 59.36 28.7361C59.04 28.1281 58.88 27.4561 58.88 26.7841V26.5601H66.528L66.496 26.6241ZM71.008 11.4881C70.496 11.4881 70.016 11.5841 69.568 11.8081C69.152 12.0321 68.8 12.3201 68.512 12.7041C68.192 13.1201 67.968 13.6001 67.776 14.1121C67.584 14.6561 67.456 15.2001 67.36 15.7761C67.36 15.9681 67.328 16.1281 67.328 16.2561L67.296 16.6721C67.264 17.3761 67.456 18.0481 67.84 18.6241C68.288 19.2001 68.992 19.5201 69.696 19.4561H69.888C70.4 19.4561 70.88 19.3601 71.328 19.1361C71.744 18.9121 72.128 18.6241 72.448 18.2721C72.768 17.8881 72.992 17.4721 73.184 17.0241C73.376 16.5441 73.536 16.0641 73.632 15.5521C73.696 15.1361 73.728 14.7521 73.728 14.3361C73.76 13.6001 73.536 12.8961 73.152 12.2881C72.672 11.6801 71.872 11.3601 71.104 11.4561L71.008 11.4881ZM26.464 26.0801L30.784 10.7201H36.288L34.048 26.0801H26.464Z" fill="#0D352A"/>
<path d="M100.225 10.272C100.225 10.176 100.225 10.112 100.257 10.016C100.257 9.952 100.257 9.856 100.257 9.792C100.321 8.8 99.9691 7.84 99.2971 7.136C98.5291 6.496 97.5371 6.176 96.5131 6.24C95.0731 6.24 93.6971 6.912 92.8011 8.064C91.6491 9.632 90.9131 11.488 90.6571 13.44C90.5611 13.888 90.4971 14.336 90.4331 14.752C90.4011 15.168 90.3691 15.552 90.3691 15.968C90.3691 16.544 90.4331 17.088 90.5611 17.632C90.6891 18.112 90.9131 18.56 91.2331 18.912C91.5851 19.296 92.0011 19.616 92.4811 19.808C93.0891 20.032 93.7611 20.16 94.4011 20.128C95.5851 20.192 96.7051 19.744 97.5691 18.944C98.3691 18.112 98.9771 17.088 99.2971 15.968H107.137C106.721 17.504 106.049 18.944 105.153 20.256C104.321 21.472 103.297 22.56 102.081 23.456C100.865 24.32 99.5211 24.992 98.1131 25.44C95.0411 26.368 91.7771 26.368 88.6731 25.472C87.3931 25.056 86.1771 24.384 85.1531 23.488C84.1931 22.624 83.4571 21.536 82.9771 20.32C82.4651 18.976 82.2091 17.536 82.2411 16.128C82.2411 15.68 82.2731 15.2 82.3051 14.72C82.3371 14.24 82.4331 13.728 82.5291 13.184C82.8491 11.296 83.4891 9.472 84.4491 7.808C85.3131 6.272 86.4651 4.928 87.7771 3.776C89.0571 2.624 90.5611 1.728 92.1611 1.12C93.7611 0.512 95.4571 0.192 97.1851 0.192C100.801 0.192 103.521 0.992 105.313 2.56C107.137 4.256 108.129 6.688 108.001 9.216V9.728C108.001 9.888 107.969 10.08 107.969 10.24L100.225 10.272ZM115.937 17.792L115.873 18.144C115.873 18.272 115.873 18.4 115.873 18.528C115.841 19.36 116.161 20.16 116.769 20.704C117.409 21.248 118.209 21.536 119.041 21.504C119.649 21.504 120.257 21.344 120.801 21.088C121.377 20.8 121.857 20.384 122.209 19.84H129.505C129.025 20.96 128.289 21.952 127.425 22.816C126.561 23.616 125.601 24.256 124.545 24.768C123.489 25.248 122.369 25.6 121.217 25.792C120.097 25.984 118.945 26.08 117.793 26.08C116.513 26.08 115.265 25.92 114.049 25.568C112.961 25.28 111.969 24.768 111.073 24.064C110.241 23.392 109.569 22.56 109.121 21.6C108.641 20.544 108.417 19.392 108.417 18.24C108.417 17.92 108.449 17.6 108.481 17.28C108.481 16.96 108.545 16.64 108.577 16.32C108.833 14.816 109.345 13.408 110.145 12.128C110.913 10.88 111.873 9.824 113.025 8.928C114.177 8.032 115.457 7.36 116.833 6.88C118.241 6.4 119.745 6.144 121.249 6.144C122.625 6.112 124.033 6.336 125.345 6.784C126.433 7.168 127.457 7.776 128.321 8.608C129.121 9.408 129.761 10.368 130.145 11.424C130.561 12.576 130.785 13.824 130.785 15.04C130.753 15.968 130.657 16.896 130.465 17.824L115.937 17.792ZM123.489 13.952C123.521 13.792 123.521 13.6 123.521 13.408C123.553 12.672 123.265 11.968 122.721 11.456C122.177 10.944 121.473 10.656 120.705 10.656C119.713 10.592 118.721 10.912 117.921 11.52C117.185 12.128 116.705 12.96 116.513 13.888L123.489 13.952ZM133.185 7.2H140.161L139.617 10.144C140.545 9.088 141.665 8.224 142.881 7.52C144.065 6.912 145.409 6.592 146.753 6.656C148.449 6.496 150.145 7.04 151.457 8.128C152.545 9.312 153.089 10.848 152.961 12.448C152.961 13.248 152.865 14.016 152.737 14.784L150.785 26.112H143.169L144.897 16.128C144.961 15.712 144.993 15.296 144.993 14.88C145.025 14.304 144.865 13.728 144.545 13.248C144.129 12.768 143.489 12.544 142.849 12.608C141.889 12.512 140.929 12.896 140.289 13.632C139.681 14.496 139.329 15.456 139.201 16.512L137.537 26.144H129.921L133.185 7.2ZM164.801 25.952C163.969 26.016 163.169 26.048 162.433 26.08C161.697 26.112 161.025 26.112 160.449 26.112C159.489 26.112 158.529 26.08 157.569 25.952C156.929 25.888 156.289 25.696 155.713 25.408C155.265 25.152 154.945 24.768 154.753 24.288C154.561 23.744 154.465 23.136 154.465 22.56C154.465 22.08 154.497 21.568 154.561 21.088C154.625 20.544 154.689 19.936 154.849 19.296L156.257 11.392H153.537L154.273 7.04H157.089L158.145 1.152H165.633L164.577 7.04H168.225L167.489 11.392H163.841L162.625 18.272L162.529 18.816C162.497 18.976 162.497 19.168 162.497 19.328C162.465 19.712 162.625 20.064 162.913 20.288C163.425 20.512 164.001 20.608 164.577 20.576H165.761L164.801 25.952ZM169.729 7.2H176.641L175.969 11.008H176.065C177.217 8.352 179.841 6.624 182.721 6.656C182.881 6.656 183.041 6.656 183.201 6.688L183.681 6.784L182.337 14.304C182.113 14.24 181.857 14.208 181.601 14.176C181.345 14.112 181.089 14.112 180.801 14.08C179.457 14.016 178.113 14.432 177.089 15.296C176.001 16.48 175.329 17.984 175.169 19.584L174.081 26.144H166.465L169.729 7.2ZM193.857 26.144L193.825 23.552C192.737 24.48 191.489 25.152 190.145 25.6C188.865 25.952 187.521 26.144 186.177 26.144C185.409 26.144 184.641 26.048 183.905 25.856C183.233 25.696 182.561 25.408 181.985 25.024C181.441 24.64 180.993 24.16 180.705 23.584C180.385 22.944 180.225 22.24 180.225 21.536C180.225 21.152 180.257 20.8 180.321 20.416C180.481 19.168 181.057 17.984 181.921 17.088C182.721 16.288 183.713 15.68 184.769 15.264C185.889 14.848 187.041 14.56 188.193 14.4L191.553 13.984C192.449 13.888 193.313 13.696 194.145 13.44C194.785 13.312 195.265 12.832 195.393 12.192C195.393 12.16 195.393 12.128 195.393 12.096C195.393 12.064 195.393 12 195.393 11.968C195.393 11.712 195.329 11.488 195.169 11.296C195.009 11.136 194.785 11.008 194.561 10.912C194.337 10.816 194.081 10.752 193.825 10.72C193.601 10.688 193.377 10.656 193.185 10.656C192.897 10.656 192.609 10.688 192.321 10.72C192.033 10.752 191.745 10.848 191.457 10.976C191.169 11.104 190.913 11.296 190.721 11.52C190.465 11.808 190.305 12.128 190.241 12.48H182.945C183.105 11.52 183.425 10.592 183.969 9.792C184.513 8.96 185.281 8.256 186.145 7.776C187.233 7.168 188.417 6.752 189.633 6.528C191.233 6.208 192.865 6.08 194.497 6.112C195.937 6.08 197.345 6.208 198.753 6.432C199.681 6.592 200.577 6.944 201.377 7.424C201.953 7.776 202.433 8.32 202.689 8.96C202.945 9.6 203.073 10.304 203.073 11.008C203.073 11.488 203.041 11.936 202.977 12.416C202.913 12.928 202.849 13.408 202.753 13.952L201.217 22.784C201.153 23.104 201.121 23.456 201.121 23.808C201.121 24.032 201.153 24.288 201.249 24.512C201.409 24.768 201.569 24.992 201.793 25.216L201.761 26.176L193.857 26.144ZM190.369 21.856C190.977 21.856 191.585 21.76 192.129 21.504C192.609 21.28 193.057 20.928 193.377 20.544C193.729 20.096 193.985 19.584 194.177 19.04C194.369 18.464 194.529 17.856 194.593 17.216C193.921 17.504 193.217 17.696 192.513 17.856L190.593 18.272C190.049 18.4 189.537 18.656 189.057 18.976C188.609 19.296 188.321 19.776 188.257 20.288V20.48C188.257 20.896 188.449 21.248 188.801 21.472C189.249 21.76 189.825 21.888 190.369 21.856ZM203.073 26.112L207.649 0.096H215.265L210.689 26.08L203.073 26.112ZM39.0091 3.872C38.9771 3.808 38.9451 3.744 38.9131 3.68C38.7531 3.456 38.5611 3.264 38.3691 3.104C37.5691 2.432 36.6091 2.016 35.5851 1.856C34.9771 1.76 34.3691 1.728 33.7611 1.792C32.9611 1.856 32.1931 2.144 31.5211 2.592C31.4891 2.624 31.4571 2.656 31.4251 2.688C31.0731 3.008 30.5291 3.008 30.1771 2.688C29.8251 2.336 29.8251 1.792 30.1771 1.44C31.1371 0.608 32.3211 0.128 33.6011 0.032C34.3691 -0.032 35.1371 0 35.9051 0.128C37.8571 0.352 39.5851 1.44 40.6411 3.104C40.8651 3.52 40.7051 4.064 40.2571 4.288C40.1611 4.352 40.0331 4.384 39.9371 4.384C39.5531 4.416 39.2011 4.224 39.0091 3.872ZM36.8011 5.92C36.7691 5.888 36.7691 5.856 36.7691 5.824C36.6731 5.696 36.5771 5.6 36.4491 5.504C36.0011 5.12 35.4571 4.896 34.8811 4.8C34.5611 4.736 34.2091 4.736 33.8891 4.768C33.4411 4.8 33.0251 4.96 32.6731 5.216L32.6411 5.248C32.3531 5.536 31.8731 5.536 31.5851 5.248C31.2971 4.96 31.2971 4.48 31.5851 4.192C32.1931 3.68 32.9611 3.36 33.7291 3.296C34.2091 3.264 34.6891 3.264 35.1371 3.36C36.3531 3.488 37.4731 4.192 38.1451 5.248C38.3051 5.6 38.1451 6.048 37.7931 6.208C37.6971 6.24 37.6011 6.272 37.5051 6.304C37.2171 6.368 36.8971 6.208 36.8011 5.92ZM36.1611 7.712C36.3211 8.8 35.5851 9.792 34.5291 9.984C33.4411 10.144 32.4491 9.408 32.2571 8.352C32.0971 7.264 32.8331 6.272 33.8891 6.08C33.9851 6.048 34.0811 6.048 34.2091 6.048C35.2011 5.984 36.0971 6.72 36.1611 7.712ZM217.377 2.976C217.601 2.464 217.921 2.016 218.305 1.632C219.553 0.448 221.377 0.096 222.977 0.736C223.489 0.928 223.937 1.248 224.353 1.632C224.737 2.016 225.057 2.464 225.281 2.944C225.505 3.456 225.633 4.032 225.633 4.608C225.633 5.184 225.537 5.76 225.313 6.272C225.089 6.752 224.769 7.2 224.385 7.584C224.001 7.968 223.553 8.256 223.041 8.48C222.497 8.704 221.953 8.8 221.377 8.8C220.801 8.8 220.257 8.704 219.745 8.48C218.721 8.064 217.889 7.264 217.441 6.24C217.217 5.728 217.089 5.152 217.121 4.576C217.057 4.096 217.153 3.52 217.377 2.976ZM218.081 6.048C218.241 6.464 218.497 6.848 218.817 7.2C219.137 7.52 219.521 7.776 219.937 7.968C220.385 8.16 220.865 8.256 221.345 8.256C222.753 8.256 224.065 7.392 224.577 6.08C224.769 5.632 224.865 5.152 224.865 4.64C224.865 4.16 224.769 3.68 224.577 3.232C224.417 2.816 224.161 2.432 223.841 2.112C223.169 1.44 222.273 1.056 221.345 1.056C220.865 1.056 220.385 1.152 219.937 1.344C219.105 1.696 218.433 2.368 218.113 3.232C217.921 3.68 217.825 4.16 217.825 4.64C217.793 5.12 217.889 5.6 218.081 6.048ZM221.569 2.176C222.049 2.144 222.497 2.272 222.881 2.528C223.169 2.784 223.329 3.2 223.297 3.584C223.329 3.936 223.201 4.32 222.913 4.544C222.657 4.768 222.305 4.896 221.985 4.896L223.425 7.072H222.593L221.217 4.96H220.417V7.072H219.649V2.176H221.569ZM221.249 4.384H221.729C221.889 4.384 222.017 4.32 222.145 4.288C222.273 4.224 222.369 4.16 222.433 4.032C222.529 3.904 222.561 3.744 222.561 3.584C222.561 3.456 222.529 3.296 222.465 3.2C222.401 3.104 222.305 3.008 222.209 2.976C222.113 2.912 221.985 2.88 221.857 2.88C221.729 2.848 221.569 2.848 221.441 2.848H220.449V4.416L221.249 4.384Z" fill="#0D352A"/>
</g>
<defs>
<clipPath id="clip0_591_5127">
<rect width="225.6" height="32" fill="white"/>
</clipPath>
</defs>
</svg>
