<svg width="24" height="24" viewBox="0 0 24 24" fill="none" xmlns="http://www.w3.org/2000/svg">
<g filter="url(#filter0_i_496_1258)">
<path fill-rule="evenodd" clip-rule="evenodd" d="M12.67 2.21684L21.17 6.96684C21.4195 7.09141 21.6294 7.28308 21.776 7.52031C21.9226 7.75755 22.0002 8.03096 22 8.30984V9.74984C22 10.4398 21.44 10.9998 20.75 10.9998H20V18.9998H21C21.2652 18.9998 21.5196 19.1052 21.7071 19.2927C21.8946 19.4803 22 19.7346 22 19.9998C22 20.2651 21.8946 20.5194 21.7071 20.707C21.5196 20.8945 21.2652 20.9998 21 20.9998H3C2.73478 20.9998 2.48043 20.8945 2.29289 20.707C2.10536 20.5194 2 20.2651 2 19.9998C2 19.7346 2.10536 19.4803 2.29289 19.2927C2.48043 19.1052 2.73478 18.9998 3 18.9998H4V10.9998H3.25C2.56 10.9998 2 10.4398 2 9.74984V8.30984C2 7.78784 2.27 7.30784 2.706 7.03584L11.329 2.21684C11.751 2.00584 12.248 2.00584 12.67 2.21684Z" fill="#D9DBDD"/>
</g>
<path fill-rule="evenodd" clip-rule="evenodd" d="M12 6C11.7348 6 11.4804 6.10536 11.2929 6.29289C11.1054 6.48043 11 6.73478 11 7C11 7.26522 11.1054 7.51957 11.2929 7.70711C11.4804 7.89464 11.7348 8 12 8C12.2652 8 12.5196 7.89464 12.7071 7.70711C12.8946 7.51957 13 7.26522 13 7C13 6.73478 12.8946 6.48043 12.7071 6.29289C12.5196 6.10536 12.2652 6 12 6ZM17 11H7V19H9V13H11V19H13V13H15V19H17V11Z" fill="#36393C"/>
<defs>
<filter id="filter0_i_496_1258" x="2" y="2.05859" width="20" height="19.9414" filterUnits="userSpaceOnUse" color-interpolation-filters="sRGB">
<feFlood flood-opacity="0" result="BackgroundImageFix"/>
<feBlend mode="normal" in="SourceGraphic" in2="BackgroundImageFix" result="shape"/>
<feColorMatrix in="SourceAlpha" type="matrix" values="0 0 0 0 0 0 0 0 0 0 0 0 0 0 0 0 0 0 127 0" result="hardAlpha"/>
<feOffset dy="1"/>
<feGaussianBlur stdDeviation="1"/>
<feComposite in2="hardAlpha" operator="arithmetic" k2="-1" k3="1"/>
<feColorMatrix type="matrix" values="0 0 0 0 0 0 0 0 0 0 0 0 0 0 0 0 0 0 0.3 0"/>
<feBlend mode="normal" in2="shape" result="effect1_innerShadow_496_1258"/>
</filter>
</defs>
</svg>
