<svg width="187" height="32" viewBox="0 0 187 32" fill="none" xmlns="http://www.w3.org/2000/svg">
<g filter="url(#filter0_i_496_1270)">
<rect x="50.6667" width="85.3333" height="32" rx="5.33333" fill="url(#paint0_radial_496_1270)"/>
</g>
<path d="M6.10352e-05 16H186.667" stroke="url(#paint1_linear_496_1270)" stroke-width="1.33333"/>
<path d="M6.10352e-05 6.6665H21.6745C22.2404 6.6665 22.7447 7.02376 22.9324 7.55766L29.3363 25.7753C29.524 26.3092 30.0283 26.6665 30.5942 26.6665H45.2707C45.8005 26.6665 46.2801 26.3528 46.4924 25.8674L50.6667 16.3217" stroke="url(#paint2_linear_496_1270)" stroke-width="1.33333"/>
<path d="M185.412 6.6665H164.193C163.691 6.6665 163.243 6.98592 163.08 7.46146L156.769 25.8716C156.606 26.3471 156.159 26.6665 155.656 26.6665H141.189C140.718 26.6665 140.292 26.3851 140.107 25.9515L136 16.3217" stroke="url(#paint3_linear_496_1270)" stroke-width="1.17647"/>
<defs>
<filter id="filter0_i_496_1270" x="50.6667" y="0" width="85.3333" height="33.3333" filterUnits="userSpaceOnUse" color-interpolation-filters="sRGB">
<feFlood flood-opacity="0" result="BackgroundImageFix"/>
<feBlend mode="normal" in="SourceGraphic" in2="BackgroundImageFix" result="shape"/>
<feColorMatrix in="SourceAlpha" type="matrix" values="0 0 0 0 0 0 0 0 0 0 0 0 0 0 0 0 0 0 127 0" result="hardAlpha"/>
<feOffset dy="1.33333"/>
<feGaussianBlur stdDeviation="1.33333"/>
<feComposite in2="hardAlpha" operator="arithmetic" k2="-1" k3="1"/>
<feColorMatrix type="matrix" values="0 0 0 0 0 0 0 0 0 0 0 0 0 0 0 0 0 0 0.3 0"/>
<feBlend mode="normal" in2="shape" result="effect1_innerShadow_496_1270"/>
</filter>
<radialGradient id="paint0_radial_496_1270" cx="0" cy="0" r="1" gradientUnits="userSpaceOnUse" gradientTransform="translate(93.3334 -6.66667) rotate(90) scale(38.6667 103.111)">
<stop stop-color="#D9DBDD"/>
<stop offset="1" stop-color="#818182"/>
</radialGradient>
<linearGradient id="paint1_linear_496_1270" x1="6.10352e-05" y1="16.5" x2="186.667" y2="16.5" gradientUnits="userSpaceOnUse">
<stop stop-color="#D9DBDD" stop-opacity="0"/>
<stop offset="0.507264" stop-color="#D9DBDD"/>
<stop offset="1" stop-color="#D9DBDD" stop-opacity="0"/>
</linearGradient>
<linearGradient id="paint2_linear_496_1270" x1="6.10523e-05" y1="7.35616" x2="46.3334" y2="27" gradientUnits="userSpaceOnUse">
<stop stop-color="#D9DBDD" stop-opacity="0"/>
<stop offset="0.507264" stop-color="#D9DBDD"/>
<stop offset="1" stop-color="#D9DBDD" stop-opacity="0"/>
</linearGradient>
<linearGradient id="paint3_linear_496_1270" x1="185.412" y1="7.35616" x2="136.333" y2="29.5" gradientUnits="userSpaceOnUse">
<stop stop-color="#D9DBDD" stop-opacity="0"/>
<stop offset="0.507264" stop-color="#D9DBDD"/>
<stop offset="1" stop-color="#D9DBDD" stop-opacity="0"/>
</linearGradient>
</defs>
</svg>
