<svg width="50" height="16" viewBox="0 0 50 16" fill="none" xmlns="http://www.w3.org/2000/svg">
<g clip-path="url(#clip0_315_1384)">
<path d="M9.6836 0C11.3947 4.37125 13.1186 8.7377 14.8571 13.0976C15.1493 13.8321 15.4092 14.3067 15.6336 14.5214C16.0533 14.9233 16.5827 15.1429 17.222 15.1832C17.2688 15.1864 17.2978 15.2107 17.3091 15.2559L17.3253 15.3269C17.3366 15.3721 17.3027 15.4157 17.2559 15.4157H10.9508C10.891 15.4157 10.8604 15.385 10.8604 15.3237V15.2607C10.8604 15.2187 10.8814 15.1961 10.9233 15.1929C11.6045 15.1364 12.6683 14.883 12.4342 13.9241C12.2906 13.3285 12.1453 12.8265 12.0016 12.4181C11.6723 11.4867 11.2575 10.4019 10.7571 9.16544C10.7409 9.12349 10.6957 9.1009 10.6521 9.11059L4.36641 10.6247C4.32608 10.636 4.29703 10.6602 4.27925 10.699C3.82567 11.7401 3.43663 12.7974 3.10896 13.8676C3.06375 14.0177 3.05247 14.163 3.07506 14.3035C3.18966 14.9944 4.08717 15.1364 4.88457 15.1945C4.92331 15.1978 4.94753 15.2171 4.95562 15.2542L4.96531 15.2946C4.98305 15.3656 4.92978 15.4334 4.85714 15.4334L0 15.4318V15.1897C0.966896 15.138 1.63359 14.6973 2.00322 13.866C3.64002 10.1792 5.38336 6.24697 7.23487 2.07101C7.31235 1.89509 7.34462 1.7595 7.33335 1.66102C7.29782 1.36883 6.95884 1.17191 6.75061 1.08959C6.36482 0.936252 6.37125 0.808717 6.76998 0.708649L9.59644 0L9.6836 0ZM10.4407 8.56659C10.473 8.55853 10.4907 8.52463 10.4778 8.49232L7.9661 2.26797C7.94673 2.22276 7.88378 2.22113 7.86441 2.26634L4.6118 9.88056C4.59402 9.92089 4.63117 9.9661 4.67475 9.95479L10.4407 8.56659Z" fill="#0E0F10"/>
<path d="M49.8789 15.1702V15.4317L44.3696 15.4333C44.3228 15.4333 44.2986 15.4091 44.2986 15.3623V15.3171C44.3002 15.238 44.339 15.1944 44.4181 15.1863C44.7231 15.1524 44.9507 15.1008 45.0976 15.033C45.7143 14.7505 46.0226 14.3147 46.0242 13.7239C46.0274 8.16291 46.0274 4.23234 46.0242 1.92888C46.0242 1.48336 45.4075 1.17827 45.0282 1.08464C44.9733 1.07011 44.9443 1.03621 44.9427 0.979727C44.9394 0.928046 44.9475 0.881247 44.9653 0.837664C44.9846 0.790865 45.0201 0.760182 45.0702 0.74887L48.0936 0.0192618C48.1404 0.00794941 48.1646 0.0273199 48.1646 0.0741576C48.1646 5.20249 48.163 9.69643 48.1614 13.556C48.1598 14.6117 48.7328 15.1492 49.8789 15.1702Z" fill="#0E0F10"/>
<path d="M21.4673 5.38999C19.3527 5.17207 18.1469 7.29961 17.9516 9.11075C17.732 11.1398 18.4504 13.3109 20.5488 14.0324C21.9031 14.499 23.2397 14.3795 24.5585 13.6757C24.8313 13.5288 24.962 13.3448 25.1719 13.1656C25.2171 13.1253 25.2881 13.1479 25.3043 13.206C25.3075 13.2237 25.3107 13.2367 25.314 13.2479C25.3382 13.348 25.3188 13.4384 25.2542 13.5207C23.9064 15.1995 21.8289 15.9566 19.7417 15.5272C16.7296 14.9041 14.657 11.829 15.6626 8.76208C16.3002 6.80566 17.9257 5.47394 19.9499 5.1317C21.1251 4.93157 22.2663 5.10265 23.3737 5.64502C24.1436 6.02275 24.7119 6.59259 25.0751 7.35125C25.1057 7.41258 25.0702 7.48684 25.004 7.50137L23.0315 7.96626C22.9362 7.98885 22.8991 7.95336 22.9169 7.8581C23.1477 6.70718 22.7571 5.52396 21.4673 5.38999Z" fill="#0E0F10"/>
<path d="M31.2396 5.38976C29.1233 5.18153 27.9272 7.31712 27.74 9.12989C27.5318 11.1622 28.2614 13.3316 30.3647 14.0419C31.7222 14.5019 33.0588 14.376 34.3744 13.6642C34.6471 13.5173 34.7779 13.3316 34.9861 13.1508C35.0313 13.1121 35.1023 13.1331 35.1185 13.1912C35.1233 13.209 35.1266 13.2219 35.1282 13.2332C35.154 13.3333 35.1347 13.4237 35.0701 13.506C33.7303 15.1928 31.656 15.9612 29.564 15.5415C26.5471 14.9346 24.4583 11.8676 25.4478 8.79249C26.0773 6.83286 27.6964 5.49145 29.7206 5.13794C30.8957 4.93293 32.0386 5.09757 33.1492 5.6351C33.9224 6.00961 34.4922 6.5762 34.8602 7.33327C34.8909 7.3946 34.8554 7.46887 34.7892 7.48498L32.8183 7.95956C32.723 7.98377 32.6859 7.94666 32.7037 7.85143C32.928 6.69889 32.5309 5.51729 31.2396 5.38976Z" fill="#0E0F10"/>
<path d="M37.49 10.3053C37.6175 12.039 38.3826 13.2383 39.7854 13.9018C41.0977 14.5216 42.7765 14.399 44.034 13.7291C44.2503 13.6145 44.4811 13.4272 44.7281 13.1641C44.7926 13.0963 44.8362 13.1076 44.8572 13.198L44.8766 13.2819C44.8992 13.3723 44.8766 13.4692 44.8153 13.5402C44.0323 14.4458 43.2236 15.0366 42.3875 15.3126C40.2422 16.0212 38.3374 15.6564 36.6716 14.2182C35.6918 13.3723 35.0315 11.9825 34.9734 10.6266C34.8976 8.9042 35.5239 7.47725 36.8507 6.34571C38.578 4.87514 41.1655 4.64111 43.1365 5.78071C44.1195 6.34892 44.7071 7.20122 44.9008 8.33924C44.9089 8.3925 44.8879 8.42478 44.8362 8.43609L37.5771 10.1859C37.5142 10.2004 37.4851 10.2408 37.49 10.3053ZM38.1228 7.0511C37.6691 7.85335 37.448 8.675 37.4625 9.51599C37.4642 9.5741 37.4932 9.59669 37.5497 9.58216C38.8023 9.28192 40.2131 8.94294 41.7838 8.56684C42.7071 8.34408 42.5828 6.95746 42.339 6.31824C42.2018 5.95988 41.7983 5.587 41.4399 5.48372C40.0388 5.08016 38.812 5.83723 38.1228 7.0511Z" fill="#0E0F10"/>
</g>
<defs>
<clipPath id="clip0_315_1384">
<rect width="49.8983" height="16" fill="white"/>
</clipPath>
</defs>
</svg>
