<svg width="28" height="28" viewBox="0 0 28 28" fill="none" xmlns="http://www.w3.org/2000/svg">
<mask id="mask0_773_1003" style="mask-type:alpha" maskUnits="userSpaceOnUse" x="0" y="0" width="28" height="28">
<rect width="28" height="28" fill="#D9D9D9"/>
</mask>
<g mask="url(#mask0_773_1003)">
<path d="M6.18337 20.0959V11.9584C6.18337 11.7104 6.26776 11.5026 6.43654 11.3348C6.60512 11.1672 6.81415 11.0834 7.06362 11.0834C7.3129 11.0834 7.52018 11.1672 7.68546 11.3348C7.85074 11.5026 7.93337 11.7104 7.93337 11.9584V20.0959C7.93337 20.3438 7.84899 20.5515 7.68021 20.7191C7.51162 20.887 7.3026 20.9709 7.05312 20.9709C6.80385 20.9709 6.59657 20.887 6.43129 20.7191C6.26601 20.5515 6.18337 20.3438 6.18337 20.0959ZM13.2417 20.0959V11.9584C13.2417 11.7104 13.3261 11.5026 13.4949 11.3348C13.6635 11.1672 13.8725 11.0834 14.122 11.0834C14.3712 11.0834 14.5785 11.1672 14.7438 11.3348C14.9091 11.5026 14.9917 11.7104 14.9917 11.9584V20.0959C14.9917 20.3438 14.9073 20.5515 14.7385 20.7191C14.57 20.887 14.3609 20.9709 14.1115 20.9709C13.8622 20.9709 13.6549 20.887 13.4896 20.7191C13.3243 20.5515 13.2417 20.3438 13.2417 20.0959ZM3.20837 24.4709C2.96046 24.4709 2.75269 24.3865 2.58508 24.2177C2.41728 24.0491 2.33337 23.8401 2.33337 23.5906C2.33337 23.3413 2.41728 23.1341 2.58508 22.9688C2.75269 22.8035 2.96046 22.7209 3.20837 22.7209H24.7917C25.0396 22.7209 25.2475 22.8052 25.4153 22.974C25.5829 23.1426 25.6667 23.3516 25.6667 23.6011C25.6667 23.8504 25.5829 24.0577 25.4153 24.2229C25.2475 24.3882 25.0396 24.4709 24.7917 24.4709H3.20837ZM20.0667 20.0959V11.9584C20.0667 11.7104 20.1511 11.5026 20.3199 11.3348C20.4885 11.1672 20.6975 11.0834 20.947 11.0834C21.1962 11.0834 21.4035 11.1672 21.5688 11.3348C21.7341 11.5026 21.8167 11.7104 21.8167 11.9584V20.0959C21.8167 20.3438 21.7323 20.5515 21.5635 20.7191C21.395 20.887 21.1859 20.9709 20.9365 20.9709C20.6872 20.9709 20.4799 20.887 20.3146 20.7191C20.1493 20.5515 20.0667 20.3438 20.0667 20.0959ZM24.9084 9.33336H3.00421C2.81793 9.33336 2.65955 9.26812 2.52908 9.13765C2.39861 9.00718 2.33337 8.8488 2.33337 8.66252V8.16669C2.33337 8.05002 2.3674 7.93822 2.43546 7.83127C2.50351 7.72433 2.58615 7.64169 2.68337 7.58336L13.125 1.63336C13.4006 1.4778 13.6922 1.40002 14 1.40002C14.3078 1.40002 14.5995 1.4778 14.875 1.63336L25.2875 7.55419C25.4042 7.63197 25.4966 7.72919 25.5646 7.84586C25.6327 7.96252 25.6667 8.09377 25.6667 8.23961V8.53798C25.6667 8.76334 25.5941 8.95225 25.4488 9.10469C25.3034 9.25713 25.1232 9.33336 24.9084 9.33336Z" fill="#29AB87"/>
</g>
</svg>
