<svg width="24" height="24" viewBox="0 0 24 24" fill="none" xmlns="http://www.w3.org/2000/svg">
<mask id="mask0_591_5295" style="mask-type:alpha" maskUnits="userSpaceOnUse" x="0" y="0" width="24" height="24">
<rect width="24" height="24" fill="#D9D9D9"/>
</mask>
<g mask="url(#mask0_591_5295)">
<path d="M13.5175 19.0713C12.2918 20.297 10.8187 20.9098 9.09807 20.9098C7.37744 20.9098 5.9043 20.297 4.67865 19.0713C3.453 17.8457 2.84017 16.3725 2.84017 14.6519C2.84017 12.9313 3.453 11.4581 4.67865 10.2325L11.2194 3.69175C12.1033 2.80786 13.1639 2.36592 14.4014 2.36592C15.6388 2.36592 16.6995 2.80786 17.5833 3.69175C18.4672 4.57563 18.9092 5.63629 18.9092 6.87373C18.9092 8.11116 18.4672 9.17182 17.5833 10.0557L11.3962 16.2429C10.854 16.785 10.2059 17.0561 9.45162 17.0561C8.69737 17.0561 8.04919 16.785 7.50708 16.2429C6.96496 15.7008 6.6939 15.0526 6.6939 14.2983C6.6939 13.5441 6.96496 12.8959 7.50708 12.3538L13.3407 6.52017C13.5411 6.31983 13.7768 6.21965 14.0478 6.21965C14.3189 6.21965 14.5546 6.31983 14.7549 6.52017C14.9553 6.72052 15.0554 6.95622 15.0554 7.22728C15.0554 7.49834 14.9553 7.73404 14.7549 7.93439L8.92129 13.768C8.76808 13.9212 8.69148 14.098 8.69148 14.2983C8.69148 14.4987 8.76808 14.6755 8.92129 14.8287C9.0745 14.9819 9.25127 15.0585 9.45162 15.0585C9.65197 15.0585 9.82874 14.9819 9.98195 14.8287L16.1691 8.64149C16.6523 8.13473 16.8969 7.54253 16.9028 6.86489C16.9087 6.18724 16.6641 5.60093 16.1691 5.10596C15.6742 4.61098 15.0849 4.3635 14.4014 4.3635C13.7178 4.3635 13.1286 4.61098 12.6336 5.10596L6.09286 11.6467C5.24433 12.4717 4.82302 13.4704 4.82891 14.6431C4.8348 15.8157 5.25612 16.8204 6.09286 17.6571C6.91782 18.4821 7.91072 18.8916 9.07155 18.8857C10.2324 18.8798 11.243 18.4703 12.1033 17.6571L18.2905 11.4699C18.4908 11.2696 18.7265 11.1694 18.9976 11.1694C19.2686 11.1694 19.5043 11.2696 19.7047 11.4699C19.905 11.6703 20.0052 11.906 20.0052 12.177C20.0052 12.4481 19.905 12.6838 19.7047 12.8841L13.5175 19.0713Z" fill="#73DDBF"/>
</g>
</svg>
