<svg width="28" height="28" viewBox="0 0 28 28" fill="none" xmlns="http://www.w3.org/2000/svg">
<mask id="mask0_773_461" style="mask-type:alpha" maskUnits="userSpaceOnUse" x="0" y="0" width="28" height="28">
<rect width="28" height="28" fill="#D9D9D9"/>
</mask>
<g mask="url(#mask0_773_461)">
<path d="M7.87496 25.6667C6.99996 25.6667 6.24649 25.3786 5.61454 24.8022C4.9826 24.2261 4.66663 23.5129 4.66663 22.6626V6.21256C4.66663 5.50147 4.88168 4.86535 5.31179 4.30418C5.7419 3.74282 6.30463 3.38728 6.99996 3.23756L15.9833 1.37089C16.5277 1.25422 17.0138 1.37225 17.4416 1.72497C17.8694 2.07769 18.0833 2.53328 18.0833 3.09172V17.5876C18.0833 17.999 17.9569 18.3644 17.7041 18.6836C17.4513 19.0029 17.1208 19.2112 16.7125 19.3084L7.58329 21.2626C7.25001 21.3343 6.97225 21.5048 6.75 21.7741C6.52775 22.0433 6.41663 22.3394 6.41663 22.6626C6.41663 23.032 6.56246 23.3334 6.85413 23.5667C7.14579 23.8001 7.48607 23.9167 7.87496 23.9167H21.5833V5.54172C21.5833 5.29381 21.6677 5.08594 21.8365 4.91814C22.005 4.75053 22.2141 4.66672 22.4635 4.66672C22.7128 4.66672 22.9201 4.75053 23.0854 4.91814C23.2507 5.08594 23.3333 5.29381 23.3333 5.54172V23.9167C23.3333 24.398 23.162 24.8099 22.8194 25.1525C22.4766 25.4953 22.0645 25.6667 21.5833 25.6667H7.87496ZM9.22129 19.1655C9.4241 19.1233 9.59064 19.0248 9.72092 18.87C9.85139 18.715 9.91663 18.5306 9.91663 18.3167V5.48339C9.91663 5.20844 9.80968 4.98415 9.59579 4.81051C9.3819 4.63687 9.13729 4.57825 8.86196 4.63464C8.65915 4.67683 8.49261 4.77532 8.36233 4.9301C8.23186 5.08507 8.16663 5.2695 8.16663 5.48339V18.3167C8.16663 18.5917 8.27357 18.816 8.48746 18.9896C8.70135 19.1632 8.94596 19.2219 9.22129 19.1655Z" fill="#29AB87"/>
</g>
</svg>
