<svg width="24" height="24" viewBox="0 0 24 24" fill="none" xmlns="http://www.w3.org/2000/svg">
<mask id="mask0_591_5245" style="mask-type:alpha" maskUnits="userSpaceOnUse" x="0" y="0" width="24" height="24">
<rect width="24" height="24" fill="#73DDBF"/>
</mask>
<g mask="url(#mask0_591_5245)">
<path d="M3 20.4999C2.71667 20.4999 2.47917 20.4041 2.2875 20.2124C2.09583 20.0207 2 19.7832 2 19.4999V13.4999C2 13.2166 2.09583 12.9791 2.2875 12.7874C2.47917 12.5957 2.71667 12.4999 3 12.4999H9C9.28333 12.4999 9.52083 12.5957 9.7125 12.7874C9.90417 12.9791 10 13.2166 10 13.4999V19.4999C10 19.7832 9.90417 20.0207 9.7125 20.2124C9.52083 20.4041 9.28333 20.4999 9 20.4999H3ZM14.725 9.9999H7.275C6.89167 9.9999 6.60417 9.82907 6.4125 9.4874C6.22083 9.14574 6.225 8.80824 6.425 8.4749L10.15 2.3999C10.35 2.06657 10.6333 1.8999 11 1.8999C11.3667 1.8999 11.65 2.06657 11.85 2.3999L15.575 8.4749C15.775 8.80824 15.7792 9.14574 15.5875 9.4874C15.3958 9.82907 15.1083 9.9999 14.725 9.9999ZM20.875 22.2499L18.925 20.2999C18.575 20.5332 18.1958 20.7082 17.7875 20.8249C17.3792 20.9416 16.95 20.9999 16.5 20.9999C15.25 20.9999 14.1875 20.5624 13.3125 19.6874C12.4375 18.8124 12 17.7499 12 16.4999C12 15.2499 12.4375 14.1874 13.3125 13.3124C14.1875 12.4374 15.25 11.9999 16.5 11.9999C17.75 11.9999 18.8125 12.4374 19.6875 13.3124C20.5625 14.1874 21 15.2499 21 16.4999C21 16.9332 20.9417 17.3541 20.825 17.7624C20.7083 18.1707 20.5417 18.5499 20.325 18.8999L22.275 20.8499C22.4583 21.0332 22.55 21.2666 22.55 21.5499C22.55 21.8332 22.4583 22.0666 22.275 22.2499C22.0917 22.4332 21.8583 22.5249 21.575 22.5249C21.2917 22.5249 21.0583 22.4332 20.875 22.2499ZM16.5 18.9999C17.2 18.9999 17.7917 18.7582 18.275 18.2749C18.7583 17.7916 19 17.1999 19 16.4999C19 15.7999 18.7583 15.2082 18.275 14.7249C17.7917 14.2416 17.2 13.9999 16.5 13.9999C15.8 13.9999 15.2083 14.2416 14.725 14.7249C14.2417 15.2082 14 15.7999 14 16.4999C14 17.1999 14.2417 17.7916 14.725 18.2749C15.2083 18.7582 15.8 18.9999 16.5 18.9999Z" fill="#73DDBF"/>
</g>
</svg>
