<svg width="24" height="24" viewBox="0 0 24 24" fill="none" xmlns="http://www.w3.org/2000/svg">
<mask id="mask0_591_5255" style="mask-type:alpha" maskUnits="userSpaceOnUse" x="0" y="0" width="24" height="24">
<rect width="24" height="24" fill="#73DDBF"/>
</mask>
<g mask="url(#mask0_591_5255)">
<path d="M6 21C4.9 21 3.95833 20.6083 3.175 19.825C2.39167 19.0417 2 18.1 2 17C2 15.9 2.39167 14.9583 3.175 14.175C3.95833 13.3917 4.9 13 6 13C7.1 13 8.04167 13.3917 8.825 14.175C9.60833 14.9583 10 15.9 10 17C10 18.1 9.60833 19.0417 8.825 19.825C8.04167 20.6083 7.1 21 6 21ZM18 21C16.9 21 15.9583 20.6083 15.175 19.825C14.3917 19.0417 14 18.1 14 17C14 15.9 14.3917 14.9583 15.175 14.175C15.9583 13.3917 16.9 13 18 13C19.1 13 20.0417 13.3917 20.825 14.175C21.6083 14.9583 22 15.9 22 17C22 18.1 21.6083 19.0417 20.825 19.825C20.0417 20.6083 19.1 21 18 21ZM12 14.9C11.4667 14.9 11.0167 14.7167 10.65 14.35C10.2833 13.9833 10.1 13.5333 10.1 13C10.1 12.4667 10.2833 12.0167 10.65 11.65C11.0167 11.2833 11.4667 11.1 12 11.1C12.5333 11.1 12.9833 11.2833 13.35 11.65C13.7167 12.0167 13.9 12.4667 13.9 13C13.9 13.5333 13.7167 13.9833 13.35 14.35C12.9833 14.7167 12.5333 14.9 12 14.9ZM12 10C10.9 10 9.95833 9.60833 9.175 8.825C8.39167 8.04167 8 7.1 8 6C8 4.9 8.39167 3.95833 9.175 3.175C9.95833 2.39167 10.9 2 12 2C13.1 2 14.0417 2.39167 14.825 3.175C15.6083 3.95833 16 4.9 16 6C16 7.1 15.6083 8.04167 14.825 8.825C14.0417 9.60833 13.1 10 12 10Z" fill="#73DDBF"/>
</g>
</svg>
