<svg width="20" height="20" viewBox="0 0 20 20" fill="none" xmlns="http://www.w3.org/2000/svg">
<mask id="mask0_773_106" style="mask-type:alpha" maskUnits="userSpaceOnUse" x="0" y="0" width="20" height="20">
<rect width="20" height="20" fill="#D9D9D9"/>
</mask>
<g mask="url(#mask0_773_106)">
<path d="M7.00016 13.878L10.0002 10.878L13.0002 13.878L13.8783 12.9999L10.8783 9.99992L13.8783 6.99992L13.0002 6.12179L10.0002 9.12179L7.00016 6.12179L6.12204 6.99992L9.12204 9.99992L6.12204 12.9999L7.00016 13.878ZM10.0016 17.9166C8.90662 17.9166 7.87738 17.7088 6.91391 17.2933C5.95044 16.8777 5.11238 16.3137 4.39975 15.6014C3.68711 14.889 3.12287 14.0513 2.70704 13.0883C2.29134 12.1252 2.0835 11.0962 2.0835 10.0014C2.0835 8.90638 2.29127 7.87714 2.70683 6.91367C3.12238 5.9502 3.68634 5.11214 4.3987 4.3995C5.11107 3.68686 5.94877 3.12263 6.91183 2.70679C7.87489 2.2911 8.90384 2.08325 9.9987 2.08325C11.0937 2.08325 12.1229 2.29103 13.0864 2.70658C14.0499 3.12214 14.8879 3.6861 15.6006 4.39846C16.3132 5.11082 16.8775 5.94853 17.2933 6.91159C17.709 7.87464 17.9168 8.9036 17.9168 9.99846C17.9168 11.0935 17.7091 12.1227 17.2935 13.0862C16.8779 14.0496 16.314 14.8877 15.6016 15.6003C14.8893 16.313 14.0516 16.8772 13.0885 17.293C12.1254 17.7087 11.0965 17.9166 10.0016 17.9166Z" fill="#CC1C0F"/>
<path d="M7.00016 13.878L10.0002 10.878L13.0002 13.878L13.8783 12.9999L10.8783 9.99992L13.8783 6.99992L13.0002 6.12179L10.0002 9.12179L7.00016 6.12179L6.12204 6.99992L9.12204 9.99992L6.12204 12.9999L7.00016 13.878ZM10.0016 17.9166C8.90662 17.9166 7.87738 17.7088 6.91391 17.2933C5.95044 16.8777 5.11238 16.3137 4.39975 15.6014C3.68711 14.889 3.12287 14.0513 2.70704 13.0883C2.29134 12.1252 2.0835 11.0962 2.0835 10.0014C2.0835 8.90638 2.29127 7.87714 2.70683 6.91367C3.12238 5.9502 3.68634 5.11214 4.3987 4.3995C5.11107 3.68686 5.94877 3.12263 6.91183 2.70679C7.87489 2.2911 8.90384 2.08325 9.9987 2.08325C11.0937 2.08325 12.1229 2.29103 13.0864 2.70658C14.0499 3.12214 14.8879 3.6861 15.6006 4.39846C16.3132 5.11082 16.8775 5.94853 17.2933 6.91159C17.709 7.87464 17.9168 8.9036 17.9168 9.99846C17.9168 11.0935 17.7091 12.1227 17.2935 13.0862C16.8779 14.0496 16.314 14.8877 15.6016 15.6003C14.8893 16.313 14.0516 16.8772 13.0885 17.293C12.1254 17.7087 11.0965 17.9166 10.0016 17.9166Z" fill="white" fill-opacity="0.4"/>
</g>
</svg>
