<svg width="28" height="32" viewBox="0 0 28 32" fill="none" xmlns="http://www.w3.org/2000/svg">
<g filter="url(#filter0_d_773_109)">
<mask id="mask0_773_109" style="mask-type:alpha" maskUnits="userSpaceOnUse" x="0" y="0" width="28" height="28">
<rect width="28" height="28" fill="#D9D9D9"/>
</mask>
<g mask="url(#mask0_773_109)">
<path d="M10.1791 20.7084H17.8208C18.0687 20.7084 18.2766 20.624 18.4444 20.4552C18.612 20.2866 18.6958 20.0776 18.6958 19.8281C18.6958 19.5788 18.612 19.3716 18.4444 19.2063C18.2766 19.041 18.0687 18.9584 17.8208 18.9584H10.1791C9.93121 18.9584 9.72345 19.0428 9.55583 19.2115C9.38803 19.3801 9.30413 19.5892 9.30413 19.8386C9.30413 20.0879 9.38803 20.2952 9.55583 20.4605C9.72345 20.6257 9.93121 20.7084 10.1791 20.7084ZM10.1791 15.75H17.8208C18.0687 15.75 18.2766 15.6657 18.4444 15.4969C18.612 15.3283 18.6958 15.1193 18.6958 14.8698C18.6958 14.6205 18.612 14.4132 18.4444 14.248C18.2766 14.0827 18.0687 14 17.8208 14H10.1791C9.93121 14 9.72345 14.0844 9.55583 14.2532C9.38803 14.4218 9.30413 14.6308 9.30413 14.8803C9.30413 15.1296 9.38803 15.3368 9.55583 15.5021C9.72345 15.6674 9.93121 15.75 10.1791 15.75ZM6.41663 25.6667C5.94996 25.6667 5.54163 25.4917 5.19163 25.1417C4.84163 24.7917 4.66663 24.3834 4.66663 23.9167V4.08337C4.66663 3.61671 4.84163 3.20837 5.19163 2.85837C5.54163 2.50837 5.94996 2.33337 6.41663 2.33337H16.2166C16.4585 2.33337 16.6891 2.38199 16.9085 2.47921C17.1278 2.57643 17.3152 2.70282 17.4708 2.85837L22.8083 8.19587C22.9638 8.35143 23.0902 8.53888 23.1875 8.75821C23.2847 8.97754 23.3333 9.20815 23.3333 9.45004V23.9167C23.3333 24.3834 23.1583 24.7917 22.8083 25.1417C22.4583 25.4917 22.05 25.6667 21.5833 25.6667H6.41663ZM16.0708 8.63337C16.0708 8.88129 16.1547 9.08906 16.3225 9.25667C16.4901 9.42447 16.6979 9.50837 16.9458 9.50837H21.5833L16.0708 4.08337V8.63337Z" fill="white"/>
</g>
</g>
<defs>
<filter id="filter0_d_773_109" x="0.666626" y="0.333374" width="26.6666" height="31.3334" filterUnits="userSpaceOnUse" color-interpolation-filters="sRGB">
<feFlood flood-opacity="0" result="BackgroundImageFix"/>
<feColorMatrix in="SourceAlpha" type="matrix" values="0 0 0 0 0 0 0 0 0 0 0 0 0 0 0 0 0 0 127 0" result="hardAlpha"/>
<feOffset dy="2"/>
<feGaussianBlur stdDeviation="2"/>
<feComposite in2="hardAlpha" operator="out"/>
<feColorMatrix type="matrix" values="0 0 0 0 0 0 0 0 0 0 0 0 0 0 0 0 0 0 0.2 0"/>
<feBlend mode="normal" in2="BackgroundImageFix" result="effect1_dropShadow_773_109"/>
<feBlend mode="normal" in="SourceGraphic" in2="effect1_dropShadow_773_109" result="shape"/>
</filter>
</defs>
</svg>
