<svg width="83" height="84" viewBox="0 0 83 84" fill="none" xmlns="http://www.w3.org/2000/svg">
<path d="M40.3125 0.310005C39.9663 0.454445 39.5387 0.846504 39.3758 1.17665C39.2129 1.48617 38.2355 4.76704 37.197 8.4606C36.1584 12.1542 34.957 16.0541 34.509 17.1271C31.3731 24.9475 24.7552 31.6537 17.0172 34.852C15.9583 35.2853 11.9672 36.544 8.11857 37.6583C0.706433 39.8043 0.319535 39.99 0.0344532 41.2693C-0.148814 42.1153 0.42135 43.2296 1.21551 43.601C1.58204 43.7661 4.84013 44.7565 8.4851 45.8089C12.1301 46.8612 15.9583 48.0787 17.0172 48.512C24.7755 51.731 31.3528 58.3959 34.509 66.237C34.957 67.3099 36.1584 71.2099 37.197 74.9034C38.2355 78.597 39.2129 81.8985 39.3758 82.2699C39.7423 83.0746 40.8419 83.6524 41.6768 83.4667C42.9393 83.1778 43.1226 82.7858 45.2403 75.2748C47.3581 67.7433 48.2133 65.329 49.7609 62.5847C52.9987 56.8483 58.3338 51.8548 64.0761 49.1517C66.2346 48.1406 68.0266 47.5422 75.1333 45.4994C81.7716 43.5804 82.2196 43.374 82.5047 42.0947C82.6472 41.3931 82.1992 40.2582 81.6087 39.8868C81.3847 39.7424 78.2895 38.7932 74.726 37.7615C65.9903 35.2234 64.3205 34.5838 61.2253 32.6648C55.1979 28.8887 50.5551 23.4206 48.0097 17.1064C47.5821 16.0334 46.3807 12.1542 45.3422 8.4606C44.3036 4.76704 43.3262 1.48617 43.1633 1.17665C42.8986 0.619522 41.8194 -0.0201416 41.2288 0.000488281C41.0863 0.0211258 40.679 0.144936 40.3125 0.310005Z" fill="url(#paint0_linear_315_1372)"/>
<defs>
<linearGradient id="paint0_linear_315_1372" x1="41.2657" y1="-83.5016" x2="41.2656" y2="83.5016" gradientUnits="userSpaceOnUse">
<stop offset="0.3" stop-color="#1D7C62"/>
<stop offset="1" stop-color="#18B98C"/>
</linearGradient>
</defs>
</svg>
