<svg width="64" height="64" viewBox="0 0 64 64" fill="none" xmlns="http://www.w3.org/2000/svg">
<g filter="url(#filter0_d_764_1426)">
<rect x="4" width="56" height="56" rx="10" fill="url(#paint0_linear_764_1426)" shape-rendering="crispEdges"/>
<rect x="4.5" y="0.5" width="55" height="55" rx="9.5" stroke="url(#paint1_linear_764_1426)" stroke-opacity="0.5" stroke-linejoin="round" shape-rendering="crispEdges"/>
<g filter="url(#filter1_d_764_1426)">
<path fill-rule="evenodd" clip-rule="evenodd" d="M38.4241 12.7537C38.3948 12.766 38.3585 12.7993 38.3448 12.8273C38.331 12.8536 38.2482 13.1322 38.1602 13.4459C38.0723 13.7596 37.9705 14.0907 37.9326 14.1819C37.667 14.846 37.1066 15.4155 36.4512 15.6871C36.3616 15.7239 36.0236 15.8308 35.6976 15.9254C35.0699 16.1077 35.0371 16.1234 35.013 16.2321C34.9975 16.3039 35.0458 16.3985 35.113 16.4301C35.1441 16.4441 35.42 16.5282 35.7287 16.6176C36.0374 16.707 36.3616 16.8103 36.4512 16.8471C37.1083 17.1205 37.6653 17.6865 37.9326 18.3524C37.9705 18.4435 38.0723 18.7747 38.1602 19.0883C38.2482 19.402 38.331 19.6824 38.3448 19.7139C38.3758 19.7823 38.4689 19.8313 38.5396 19.8155C38.6465 19.791 38.6621 19.7577 38.8414 19.1199C39.0208 18.4803 39.0932 18.2753 39.2243 18.0422C39.4984 17.5551 39.9503 17.131 40.4366 16.9015C40.6194 16.8156 40.7711 16.7648 41.373 16.5913C41.9352 16.4283 41.9731 16.4108 41.9973 16.3022C42.0093 16.2426 41.9714 16.1462 41.9214 16.1147C41.9024 16.1024 41.6403 16.0218 41.3385 15.9342C40.5987 15.7186 40.4573 15.6643 40.1951 15.5014C39.6847 15.1807 39.2915 14.7163 39.0759 14.1801C39.0397 14.089 38.938 13.7596 38.85 13.4459C38.7621 13.1322 38.6793 12.8536 38.6655 12.8273C38.6431 12.78 38.5517 12.7257 38.5017 12.7274C38.4896 12.7292 38.4551 12.7397 38.4241 12.7537ZM28.6692 22.2728L36.5065 22.2797H40.5008V25.6806L40.5004 34.9617H36.5065V25.6875L28.6692 25.6806V41.2645H24.6749V25.6806H21.9995V22.2728H24.6749V19.5159C24.6749 17.4483 25.1774 15.9678 26.1822 15.0743C27.2122 14.1554 28.6567 13.6959 30.5157 13.6959H32.4751V17.142H31.1186C30.2393 17.142 29.6113 17.3334 29.2345 17.7163C28.8577 18.0737 28.6692 18.6863 28.6692 19.5542V22.2728ZM36.5065 37.7518H40.5004L40.5008 41.2714H36.5065V37.7518Z" fill="#23B18A"/>
<path fill-rule="evenodd" clip-rule="evenodd" d="M38.4241 12.7537C38.3948 12.766 38.3585 12.7993 38.3448 12.8273C38.331 12.8536 38.2482 13.1322 38.1602 13.4459C38.0723 13.7596 37.9705 14.0907 37.9326 14.1819C37.667 14.846 37.1066 15.4155 36.4512 15.6871C36.3616 15.7239 36.0236 15.8308 35.6976 15.9254C35.0699 16.1077 35.0371 16.1234 35.013 16.2321C34.9975 16.3039 35.0458 16.3985 35.113 16.4301C35.1441 16.4441 35.42 16.5282 35.7287 16.6176C36.0374 16.707 36.3616 16.8103 36.4512 16.8471C37.1083 17.1205 37.6653 17.6865 37.9326 18.3524C37.9705 18.4435 38.0723 18.7747 38.1602 19.0883C38.2482 19.402 38.331 19.6824 38.3448 19.7139C38.3758 19.7823 38.4689 19.8313 38.5396 19.8155C38.6465 19.791 38.6621 19.7577 38.8414 19.1199C39.0208 18.4803 39.0932 18.2753 39.2243 18.0422C39.4984 17.5551 39.9503 17.131 40.4366 16.9015C40.6194 16.8156 40.7711 16.7648 41.373 16.5913C41.9352 16.4283 41.9731 16.4108 41.9973 16.3022C42.0093 16.2426 41.9714 16.1462 41.9214 16.1147C41.9024 16.1024 41.6403 16.0218 41.3385 15.9342C40.5987 15.7186 40.4573 15.6643 40.1951 15.5014C39.6847 15.1807 39.2915 14.7163 39.0759 14.1801C39.0397 14.089 38.938 13.7596 38.85 13.4459C38.7621 13.1322 38.6793 12.8536 38.6655 12.8273C38.6431 12.78 38.5517 12.7257 38.5017 12.7274C38.4896 12.7292 38.4551 12.7397 38.4241 12.7537ZM28.6692 22.2728L36.5065 22.2797H40.5008V25.6806L40.5004 34.9617H36.5065V25.6875L28.6692 25.6806V41.2645H24.6749V25.6806H21.9995V22.2728H24.6749V19.5159C24.6749 17.4483 25.1774 15.9678 26.1822 15.0743C27.2122 14.1554 28.6567 13.6959 30.5157 13.6959H32.4751V17.142H31.1186C30.2393 17.142 29.6113 17.3334 29.2345 17.7163C28.8577 18.0737 28.6692 18.6863 28.6692 19.5542V22.2728ZM36.5065 37.7518H40.5004L40.5008 41.2714H36.5065V37.7518Z" fill="white"/>
</g>
</g>
<defs>
<filter id="filter0_d_764_1426" x="0" y="0" width="64" height="64" filterUnits="userSpaceOnUse" color-interpolation-filters="sRGB">
<feFlood flood-opacity="0" result="BackgroundImageFix"/>
<feColorMatrix in="SourceAlpha" type="matrix" values="0 0 0 0 0 0 0 0 0 0 0 0 0 0 0 0 0 0 127 0" result="hardAlpha"/>
<feOffset dy="4"/>
<feGaussianBlur stdDeviation="2"/>
<feComposite in2="hardAlpha" operator="out"/>
<feColorMatrix type="matrix" values="0 0 0 0 0 0 0 0 0 0 0 0 0 0 0 0 0 0 0.25 0"/>
<feBlend mode="normal" in2="BackgroundImageFix" result="effect1_dropShadow_764_1426"/>
<feBlend mode="normal" in="SourceGraphic" in2="effect1_dropShadow_764_1426" result="shape"/>
</filter>
<filter id="filter1_d_764_1426" x="17.8361" y="10.6457" width="28.3268" height="36.8708" filterUnits="userSpaceOnUse" color-interpolation-filters="sRGB">
<feFlood flood-opacity="0" result="BackgroundImageFix"/>
<feColorMatrix in="SourceAlpha" type="matrix" values="0 0 0 0 0 0 0 0 0 0 0 0 0 0 0 0 0 0 127 0" result="hardAlpha"/>
<feOffset dy="2.08171"/>
<feGaussianBlur stdDeviation="2.08171"/>
<feComposite in2="hardAlpha" operator="out"/>
<feColorMatrix type="matrix" values="0 0 0 0 0 0 0 0 0 0 0 0 0 0 0 0 0 0 0.25 0"/>
<feBlend mode="normal" in2="BackgroundImageFix" result="effect1_dropShadow_764_1426"/>
<feBlend mode="normal" in="SourceGraphic" in2="effect1_dropShadow_764_1426" result="shape"/>
</filter>
<linearGradient id="paint0_linear_764_1426" x1="32" y1="5.19841e-07" x2="50.8207" y2="71.1078" gradientUnits="userSpaceOnUse">
<stop stop-color="#23B18A"/>
<stop offset="1" stop-color="#147359"/>
</linearGradient>
<linearGradient id="paint1_linear_764_1426" x1="4" y1="0" x2="32" y2="56" gradientUnits="userSpaceOnUse">
<stop stop-color="white"/>
<stop offset="1" stop-color="white" stop-opacity="0.2"/>
</linearGradient>
</defs>
</svg>
