<svg width="18" height="18" viewBox="0 0 18 18" fill="none" xmlns="http://www.w3.org/2000/svg">
<path d="M12.6979 1.63368C13.1079 1.22381 13.6639 0.99358 14.2436 0.993652C14.8233 0.993725 15.3793 1.22409 15.7892 1.63407C16.199 2.04405 16.4293 2.60006 16.4292 3.17979C16.4291 3.75952 16.1987 4.31547 15.7888 4.72535L14.5353 5.97849L5.43916 15.0766C5.2594 15.2558 5.0384 15.3882 4.79556 15.462L1.42013 16.4856C1.3531 16.5058 1.28187 16.5074 1.21399 16.4903C1.14611 16.4733 1.08412 16.4381 1.03459 16.3887C0.985055 16.3392 0.949834 16.2773 0.93266 16.2094C0.915486 16.1416 0.916999 16.0704 0.93704 16.0033L1.96138 12.6286C2.03591 12.3855 2.16905 12.1645 2.34909 11.985L6.89672 7.43627" stroke="#FFCC00" stroke-width="1.84162" stroke-linecap="round" stroke-linejoin="round"/>
<path d="M7.80516 4.67325C7.77425 4.55346 7.71181 4.44413 7.62433 4.35665C7.53685 4.26917 7.42752 4.20672 7.30772 4.17582L5.18403 3.62819C5.1478 3.61791 5.11591 3.59609 5.0932 3.56604C5.0705 3.53599 5.05821 3.49935 5.05821 3.46169C5.05821 3.42403 5.0705 3.38739 5.0932 3.35734C5.11591 3.32729 5.1478 3.30547 5.18403 3.29519L7.30772 2.74722C7.42748 2.71634 7.53678 2.65395 7.62425 2.56653C7.71173 2.47912 7.7742 2.36986 7.80516 2.25013L8.35278 0.126435C8.36296 0.0900597 8.38476 0.0580133 8.41486 0.035185C8.44495 0.0123567 8.48169 0 8.51946 0C8.55723 0 8.59397 0.0123567 8.62406 0.035185C8.65415 0.0580133 8.67595 0.0900597 8.68613 0.126435L9.23341 2.25013C9.26432 2.36993 9.32676 2.47925 9.41424 2.56673C9.50172 2.65422 9.61105 2.71666 9.73084 2.74756L11.8545 3.29484C11.8911 3.30491 11.9233 3.32669 11.9462 3.35683C11.9692 3.38697 11.9816 3.42381 11.9816 3.46169C11.9816 3.49957 11.9692 3.53641 11.9462 3.56655C11.9233 3.59669 11.8911 3.61847 11.8545 3.62854L9.73084 4.17582C9.61105 4.20672 9.50172 4.26917 9.41424 4.35665C9.32676 4.44413 9.26432 4.55346 9.23341 4.67325L8.68579 6.79695C8.67561 6.83332 8.65381 6.86537 8.62371 6.8882C8.59362 6.91103 8.55688 6.92338 8.51911 6.92338C8.48134 6.92338 8.4446 6.91103 8.41451 6.8882C8.38442 6.86537 8.36262 6.83332 8.35244 6.79695L7.80516 4.67325Z" fill="#FFCC00"/>
</svg>
