<svg width="83" height="30" viewBox="0 0 83 30" fill="none" xmlns="http://www.w3.org/2000/svg">
<path d="M66.5051 29.5563V7.63226H69.4141L69.7509 9.99001C70.2408 9.27554 70.9145 8.64273 71.7718 8.09156C72.6292 7.5404 73.7315 7.26482 75.0788 7.26482C76.5486 7.26482 77.8448 7.61185 78.9676 8.3059C80.0903 8.99996 80.9681 9.94918 81.6009 11.1536C82.2542 12.358 82.5808 13.7257 82.5808 15.2567C82.5808 16.7877 82.2542 18.1554 81.6009 19.3598C80.9681 20.5438 80.0903 21.4828 78.9676 22.1768C77.8448 22.8505 76.5384 23.1873 75.0482 23.1873C73.8642 23.1873 72.8129 22.9525 71.8943 22.483C70.9961 22.0135 70.2816 21.3501 69.7509 20.4927V29.5563H66.5051ZM74.497 20.3702C75.8851 20.3702 77.0283 19.9007 77.9265 18.9617C78.8247 18.0023 79.2738 16.7571 79.2738 15.2261C79.2738 14.2258 79.0697 13.3378 78.6614 12.5621C78.2531 11.7864 77.6917 11.1842 76.9773 10.7555C76.2628 10.3064 75.436 10.0819 74.497 10.0819C73.1089 10.0819 71.9657 10.5616 71.0675 11.521C70.1898 12.4804 69.7509 13.7155 69.7509 15.2261C69.7509 16.7571 70.1898 18.0023 71.0675 18.9617C71.9657 19.9007 73.1089 20.3702 74.497 20.3702Z" fill="url(#paint0_linear_727_46)"/>
<path d="M55.7273 23.1873C54.2372 23.1873 52.9103 22.8607 51.7467 22.2075C50.6035 21.5338 49.7053 20.605 49.0521 19.421C48.3989 18.237 48.0723 16.8591 48.0723 15.2873C48.0723 13.6951 48.3887 12.2967 49.0215 11.0923C49.6747 9.88794 50.5729 8.94893 51.7161 8.27528C52.8796 7.60164 54.2269 7.26482 55.758 7.26482C57.2481 7.26482 58.5444 7.60164 59.6467 8.27528C60.7491 8.92851 61.6064 9.80629 62.2188 10.9086C62.8312 12.0109 63.1374 13.2255 63.1374 14.5524C63.1374 14.7566 63.1272 14.9811 63.1068 15.2261C63.1068 15.4506 63.0966 15.7058 63.0762 15.9916H51.2568C51.3588 17.4613 51.8386 18.5841 52.6959 19.3598C53.5737 20.1151 54.5842 20.4927 55.7273 20.4927C56.6459 20.4927 57.4115 20.2886 58.0239 19.8803C58.6567 19.4516 59.1262 18.8801 59.4324 18.1656H62.6781C62.2699 19.5945 61.4533 20.7887 60.2285 21.7482C59.0241 22.7076 57.5237 23.1873 55.7273 23.1873ZM55.7273 9.92877C54.6454 9.92877 53.686 10.2554 52.849 10.9086C52.0121 11.5414 51.5017 12.5009 51.318 13.7869H59.8917C59.8305 12.6029 59.412 11.6639 58.6363 10.9699C57.8606 10.2758 56.8909 9.92877 55.7273 9.92877Z" fill="url(#paint1_linear_727_46)"/>
<path d="M37.4108 22.8198V7.63226H40.3197L40.5953 10.5106C41.126 9.5103 41.8609 8.72438 42.7999 8.1528C43.7594 7.56081 44.9127 7.26482 46.26 7.26482V10.6637H45.372C44.4739 10.6637 43.6675 10.8168 42.953 11.123C42.259 11.4087 41.6976 11.9089 41.2689 12.6233C40.8607 13.3174 40.6565 14.287 40.6565 15.5323V22.8198H37.4108Z" fill="url(#paint2_linear_727_46)"/>
<path d="M19.35 22.8199V7.63227H22.2283L22.4732 10.2962C22.9428 9.3572 23.6266 8.62232 24.5248 8.09157C25.4434 7.54041 26.4947 7.26483 27.6787 7.26483C29.5159 7.26483 30.9551 7.8364 31.9962 8.97955C33.0577 10.1227 33.5884 11.8272 33.5884 14.0931V22.8199H30.3733V14.4299C30.3733 11.4904 29.1689 10.0206 26.7601 10.0206C25.5557 10.0206 24.5554 10.4493 23.7593 11.3067C22.9836 12.164 22.5957 13.3889 22.5957 14.9811V22.8199H19.35Z" fill="url(#paint3_linear_727_46)"/>
<path d="M13.3473 0.0211186C13.3235 0.0309281 13.2941 0.0575528 13.2829 0.0799742C13.2716 0.100994 13.2044 0.323803 13.1329 0.574639C13.0614 0.825475 12.9788 1.09032 12.9479 1.16319C12.7321 1.69429 12.2767 2.14972 11.7442 2.36693C11.6713 2.39635 11.3967 2.48183 11.1318 2.5575C10.6217 2.70324 10.5951 2.71585 10.5755 2.80273C10.5629 2.86019 10.6021 2.93586 10.6568 2.96108C10.682 2.97229 10.9062 3.03956 11.157 3.11102C11.4079 3.18249 11.6713 3.26517 11.7442 3.2946C12.2781 3.5132 12.7307 3.96583 12.9479 4.49833C12.9788 4.5712 13.0614 4.83605 13.1329 5.08688C13.2044 5.33772 13.2716 5.56193 13.2829 5.58715C13.3081 5.64181 13.3837 5.68104 13.4412 5.66843C13.5281 5.64881 13.5407 5.62219 13.6864 5.11211C13.8322 4.60063 13.891 4.43667 13.9975 4.2503C14.2203 3.86073 14.5875 3.52161 14.9827 3.33804C15.1312 3.26937 15.2545 3.22874 15.7436 3.09001C16.2004 2.95968 16.2312 2.94567 16.2509 2.85879C16.2607 2.81114 16.2298 2.73407 16.1892 2.70885C16.1738 2.69904 15.9608 2.63458 15.7156 2.56451C15.1144 2.39215 14.9995 2.34871 14.7865 2.21839C14.3717 1.96194 14.0522 1.59059 13.877 1.16179C13.8476 1.08892 13.7649 0.825475 13.6934 0.574639C13.622 0.323803 13.5547 0.100994 13.5435 0.0799742C13.5253 0.0421386 13.451 -0.00130224 13.4104 9.91821e-05C13.4006 0.00150013 13.3725 0.0099082 13.3473 0.0211186Z" fill="url(#paint4_linear_727_46)"/>
<path d="M2.17416 22.8207V10.3583H0.00012207V7.63314H2.17416V5.42849C2.17416 3.775 2.58243 2.59102 3.39898 1.87655C4.23593 1.14167 5.40971 0.774225 6.92031 0.774225H8.51257V3.53004H7.41024C6.69576 3.53004 6.18543 3.68314 5.87922 3.98934C5.57302 4.27513 5.41992 4.76505 5.41992 5.45911V7.63314H11.7889H15.0347V10.3583H11.7889H5.41992V22.8207H2.17416Z" fill="url(#paint5_linear_727_46)"/>
<path d="M15.0331 7.63815V22.8255H11.7874V20.0123H15.0328V17.7809H11.7874V7.63815H15.0331Z" fill="url(#paint6_linear_727_46)"/>
<defs>
<linearGradient id="paint0_linear_727_46" x1="74.543" y1="51.8477" x2="74.5429" y2="7.26482" gradientUnits="userSpaceOnUse">
<stop offset="0.3" stop-color="#1D7C62"/>
<stop offset="1" stop-color="#18B98C"/>
</linearGradient>
<linearGradient id="paint1_linear_727_46" x1="55.6049" y1="39.1098" x2="55.6048" y2="7.26482" gradientUnits="userSpaceOnUse">
<stop offset="0.3" stop-color="#1D7C62"/>
<stop offset="1" stop-color="#18B98C"/>
</linearGradient>
<linearGradient id="paint2_linear_727_46" x1="41.8354" y1="38.3749" x2="41.8354" y2="7.26482" gradientUnits="userSpaceOnUse">
<stop offset="0.3" stop-color="#1D7C62"/>
<stop offset="1" stop-color="#18B98C"/>
</linearGradient>
<linearGradient id="paint3_linear_727_46" x1="26.4692" y1="38.3749" x2="26.4692" y2="7.26483" gradientUnits="userSpaceOnUse">
<stop offset="0.3" stop-color="#1D7C62"/>
<stop offset="1" stop-color="#18B98C"/>
</linearGradient>
<linearGradient id="paint4_linear_727_46" x1="13.4129" y1="-5.67067" x2="13.4129" y2="5.6708" gradientUnits="userSpaceOnUse">
<stop offset="0.3" stop-color="#1D7C62"/>
<stop offset="1" stop-color="#18B98C"/>
</linearGradient>
<linearGradient id="paint5_linear_727_46" x1="7.51741" y1="44.8769" x2="7.51738" y2="0.774226" gradientUnits="userSpaceOnUse">
<stop offset="0.3" stop-color="#1D7C62"/>
<stop offset="1" stop-color="#18B98C"/>
</linearGradient>
<linearGradient id="paint6_linear_727_46" x1="7.51741" y1="44.8769" x2="7.51738" y2="0.774226" gradientUnits="userSpaceOnUse">
<stop offset="0.3" stop-color="#1D7C62"/>
<stop offset="1" stop-color="#18B98C"/>
</linearGradient>
</defs>
</svg>
