<svg width="249" height="25" viewBox="0 0 249 25" fill="none" xmlns="http://www.w3.org/2000/svg">
<g clip-path="url(#clip0_591_5122)">
<path d="M53.1845 16.2738H55.6607V24.2917H35.375V21.3452H38.2024V3.65476H33.6012L27.7024 24.2917H22.9881L18.1548 7.19048L13.2024 24.2917H8.4881L2.59524 3.65476H0V0.827381H10.9643V3.77381H7.77976L11.7917 17.9226L16.506 0.821429H21.3393L26.1726 18.0357L30.0655 3.76786H26.7619V0.827381H55.2976V8.49405H52.8214L52.5833 7.55357C51.875 4.72619 51.0476 3.77976 48.8095 3.77976H43.2679V10.8571H50C50.2381 11.3274 50.3512 11.9167 50.3512 12.506C50.3512 13.0952 50.2321 13.6845 50 14.1548H43.2798V21.4643H49.0595C51.2976 21.4643 52.2441 20.5238 52.9524 17.5714L53.1845 16.2738ZM74.5298 17.4524C73.8214 20.3988 72.881 21.3452 70.6369 21.3452H65.9226V3.65476H69.1071V0.827381H58.0179V3.77381H60.8452V21.4643H58.0179V24.4107H77.1191V16.3929H74.6429L74.5298 17.4524ZM95.756 17.4524C95.0476 20.3988 94.1072 21.3452 91.8631 21.3452H87.1488V3.65476H90.3333V0.827381H79.25V3.77381H82.0774V21.4643H79.25V24.4107H98.3512V16.3929H95.875L95.756 17.4524ZM113.44 10.494L109.196 9.55357C106.72 8.96428 105.661 8.01786 105.661 6.36905C105.661 4.3631 107.196 3.18452 110.375 3.18452C113.44 3.18452 115.327 4.24405 116.036 6.95833L116.387 8.1369H118.863V2.2381C116.268 0.821428 113.321 0.113095 110.256 0.113095C104.476 0.113095 100.821 2.82738 100.821 7.30357C100.821 10.7262 102.946 13.3155 107.071 14.1429L111.315 15.0833C114.03 15.6726 115.089 16.7321 115.089 18.506C115.089 20.744 113.44 21.9286 110.137 21.9286C106.363 21.9286 104.476 20.3929 103.649 17.5655L103.179 16.1488H100.702V22.75C103.768 24.2857 107.19 24.9881 110.607 24.9881C116.268 24.9881 119.923 22.1607 119.923 17.7976C119.929 14.0357 117.69 11.5595 113.44 10.494ZM145.988 3.65476C148.226 3.65476 149.054 4.59524 149.762 7.42857L150 8.36905H152.476V0.827381H132.077V3.77381H134.905V21.4643H132.077V24.4107H143.28V21.4643H139.857V14.625H146.815C147.054 14.1548 147.167 13.5655 147.167 12.9762C147.167 12.3869 147.048 11.9167 146.815 11.3274H139.857V3.65476H145.988ZM197.286 21.6964C197.637 22.5238 197.637 23.5833 197.286 24.4107C196.458 24.5298 195.518 24.5298 194.69 24.5298C191.387 24.5298 189.857 23.2321 189.5 20.0476L189.381 18.869C189.03 15.4464 187.845 14.1548 184.19 14.1548H182.304V21.3452H185.488V24.2917H164.262V21.3452H166.976L165.44 17.1012H156.714L155.179 21.3452H158.006V24.2917H149.042V21.3452H151.399L159.655 0.708333H164.137L172.512 21.3452H177.113V3.65476H174.286V0.827381H187.845C192.679 0.827381 195.744 3.18452 195.744 7.07738C195.744 10.8512 192.56 12.8571 189.613 13.0893V13.2083C192.679 13.4464 193.976 15.2143 194.214 17.8095L194.333 19.1071C194.571 21.1131 194.923 21.9345 196.458 21.9345C196.815 21.8155 197.054 21.6964 197.286 21.6964ZM164.387 14.3869L161.083 5.42262L157.78 14.3869H164.387ZM190.804 7.42857C190.804 4.95238 189.268 3.65476 186.202 3.65476H182.19V11.3214H186.202C189.149 11.3214 190.804 9.90476 190.804 7.42857ZM210.851 13.5595C210.851 14.1488 210.97 14.7381 211.202 15.2083H215.214V21.2202C213.917 21.6905 212.619 22.0476 211.202 22.0476C206.369 22.0476 203.774 18.625 203.774 12.6131C203.774 6.60119 206.25 3.17857 210.851 3.17857C213.566 3.05952 215.923 4.71429 216.75 7.30357L217.101 8.24405H219.577V2.125C216.863 0.708333 213.798 0 210.613 0C203.185 0 198.232 4.95238 198.232 12.5C198.232 20.1667 203.065 25 210.613 25C213.917 24.881 217.101 24.0595 220.048 22.5238V12.0298H211.083C210.964 12.5 210.851 13.0893 210.851 13.5595ZM248.351 12.5C248.351 19.4583 242.691 25 235.851 25C228.893 25 223.351 19.4583 223.351 12.5C223.351 5.54167 229.012 0 235.851 0C242.81 0 248.351 5.66071 248.351 12.5ZM242.81 12.5C242.81 6.48809 240.333 3.06548 235.851 3.06548C231.369 3.06548 228.893 6.48809 228.893 12.5C228.893 18.5119 231.369 21.9345 235.851 21.9345C240.327 21.9345 242.81 18.5119 242.81 12.5Z" fill="#0D352A"/>
</g>
<defs>
<clipPath id="clip0_591_5122">
<rect width="248.351" height="25" fill="white"/>
</clipPath>
</defs>
</svg>
