<svg width="114" height="42" viewBox="0 0 114 42" fill="none" xmlns="http://www.w3.org/2000/svg">
<g clip-path="url(#clip0_591_5108)">
<path fill-rule="evenodd" clip-rule="evenodd" d="M110.337 6.8691C112.221 6.8691 113.791 5.33826 113.791 3.4149C113.791 1.53079 112.221 -0.0393066 110.337 -0.0393066C108.453 -0.0393066 106.883 1.53079 106.883 3.4149C106.922 5.33826 108.453 6.8691 110.337 6.8691ZM107.432 3.45415C107.432 1.84481 108.767 0.510226 110.376 0.510226C111.986 0.510226 113.32 1.84481 113.32 3.45415C113.32 5.0635 111.986 6.39808 110.376 6.39808C108.728 6.35882 107.432 5.0635 107.432 3.45415ZM109.042 5.18125H109.709V3.68967H110.494L111.083 5.142H111.829L111.161 3.57191C111.397 3.45415 111.789 3.33639 111.789 2.6691C111.789 1.60929 111.004 1.49153 110.298 1.49153H109.081V5.18125H109.042ZM109.709 2.15882H110.455C110.847 2.15882 111.083 2.31583 111.083 2.62985C111.083 2.94387 110.847 3.10088 110.533 3.10088H109.748V2.15882H109.709Z" fill="#0D352A"/>
<path d="M-0.00195312 4.98514V4.94589V0.863647H4.08029V4.94589V4.98514V30.6169V30.6954V34.6992H-0.00195312V30.6562V30.6169V4.98514Z" fill="#0D352A"/>
<path d="M41.4082 22.3739C41.526 28.5365 45.3334 33.443 49.9652 33.3645C54.597 33.286 58.2475 28.2225 58.1297 22.0991C58.012 15.9365 54.2045 11.03 49.5727 11.1085C44.9409 11.187 41.2905 16.2505 41.4082 22.3739ZM75.0867 14.9552C75.2045 15.1907 74.9297 14.6019 74.9297 14.6019L75.0867 14.9552ZM77.8736 40.43C78.0699 40.1159 78.3054 39.6449 78.6194 39.0169L77.8736 40.43ZM78.1091 12.8356C78.1484 12.9533 78.2269 13.1103 78.2662 13.2673L79.64 16.6038L78.1091 12.8356ZM61.0736 29.7141C63.5858 31.9907 65.8624 33.1683 68.7671 33.1683C71.7503 33.2075 74.3802 31.7552 74.3802 28.9683C74.3802 26.6524 72.2998 25.2786 68.6101 23.7085C65.4699 22.3739 63.154 21.3926 61.9372 19.4692C62.0942 20.3328 62.1727 21.1963 62.1727 22.0991C62.1727 29.6356 56.6774 35.7589 49.926 35.7589C43.1353 35.7589 37.6792 29.6356 37.6792 22.0991C37.6792 17.5458 39.6811 13.5029 42.7428 11.03H34.4213V30.6169V30.6954V34.7384H30.7316V30.8524C30.7316 30.7739 30.7316 30.6954 30.7316 30.6561V11.03H27.4736V8.55706H30.7708C31.2419 3.57202 34.3035 0.74585 38.582 0.74585C41.369 0.74585 42.8605 1.02062 43.7634 1.45239V4.82809C43.7634 5.06361 43.7634 5.22062 43.7634 5.22062C43.7241 5.22062 43.6456 5.22062 43.6456 5.22062C42.311 4.00379 41.0157 3.06174 37.9148 3.06174C35.4811 3.06174 33.8718 5.06361 34.4213 8.51781H48.1989C48.7484 8.43931 49.3372 8.40006 49.926 8.40006C54.8325 8.40006 59.0718 11.6187 60.9951 16.2898C60.9951 16.015 60.9559 15.7795 60.9559 15.4655C60.9559 10.5982 65.6662 8.55706 70.5334 8.55706C70.7297 8.55706 70.8867 8.55706 71.083 8.55706C72.8101 8.51781 75.2437 9.1066 76.7353 9.49912L78.1091 12.8356L79.64 16.6038L83.8007 26.6916L84.2718 28.301L84.8213 26.6916L90.0419 13.7384C91.0232 10.1664 94.8306 8.63557 99.0699 8.63557C101.19 8.63557 102.72 8.87108 104.565 9.53837V13.4636C102.289 11.815 100.64 10.8337 98.0493 10.8337C95.7727 10.8337 93.025 11.8543 93.025 15.1907C92.9858 17.7029 94.5166 18.1739 98.9521 20.372C102.603 21.9421 105.978 23.7085 106.018 27.7515C106.018 34.5029 99.3447 35.6804 96.0867 35.6804C93.182 35.6804 90.5521 34.9739 89.0605 33.7571V29.3216L89.2961 29.5178C91.926 31.9907 94.2419 33.2468 97.2643 33.2468C100.247 33.286 102.877 31.8337 102.877 29.0468C102.877 26.7309 100.797 25.3571 97.1073 23.787C93.5746 22.2561 91.2587 21.2356 90.3166 18.7234C88.8643 22.2169 82.1914 38.5066 80.6213 42.0001H77.0101L77.8736 40.3907L78.6194 38.9776L78.6587 38.9384C79.5615 37.172 80.8961 34.3851 82.0344 31.6767L75.0867 14.9159C75.0475 14.7982 74.9297 14.5627 74.6942 14.0131C74.1447 12.7963 73.6736 11.6973 72.182 11.1085C71.397 10.8337 70.5334 10.7159 69.5129 10.7159C67.2363 10.7159 64.2923 11.7365 64.2923 15.073C64.2531 17.5851 65.9409 18.0561 70.3764 20.2543C74.0269 21.8244 77.4026 23.5907 77.4419 27.6337C77.4419 34.3851 70.769 35.5627 67.511 35.5627C64.9204 35.5627 62.5652 35.0131 60.9951 33.9926V29.7141H61.0736Z" fill="#0D352A"/>
<path d="M11.6561 8.79248L11.6954 11.7364V11.9327H11.7346C11.7739 11.8149 11.8524 11.6972 11.8917 11.6186C13.3832 10.0093 15.2674 8.43921 19.7421 8.43921C24.0206 8.43921 26.8075 12.0897 26.9253 14.3663V30.5775V30.656V34.6598H23.2356V29.8317V16.0149C23.2356 13.1495 20.7234 11.1084 17.6617 11.1084C15.1103 11.1084 11.8131 13.385 11.7346 15.7401V30.6168V30.7345V34.7383H8.04492V30.6168V12.2074V8.79248H8.71221H10.7141H11.6561Z" fill="#0D352A"/>
</g>
<defs>
<clipPath id="clip0_591_5108">
<rect width="113.793" height="42" fill="white"/>
</clipPath>
</defs>
</svg>
