<svg width="23" height="23" viewBox="0 0 23 23" fill="none" xmlns="http://www.w3.org/2000/svg">
<g clip-path="url(#clip0_773_910)">
<path d="M20.3086 11.0774C20.3086 16.1756 16.1757 20.3085 11.0774 20.3085M20.3086 11.0774C20.3086 5.97913 16.1757 1.84619 11.0774 1.84619M20.3086 11.0774H1.84625M11.0774 20.3085C5.97919 20.3085 1.84625 16.1756 1.84625 11.0774M11.0774 20.3085C8.70708 17.8197 7.38496 14.5144 7.38496 11.0774C7.38496 7.64036 8.70708 4.33506 11.0774 1.84619M11.0774 20.3085C13.4478 17.8197 14.7699 14.5144 14.7699 11.0774C14.7699 7.64036 13.4478 4.33506 11.0774 1.84619M1.84625 11.0774C1.84625 5.97913 5.97919 1.84619 11.0774 1.84619" stroke="#5E6469" stroke-width="1.84624" stroke-linecap="round" stroke-linejoin="round"/>
</g>
<defs>
<clipPath id="clip0_773_910">
<rect width="22.1548" height="22.1548" fill="white"/>
</clipPath>
</defs>
</svg>
