<svg width="24" height="24" viewBox="0 0 24 24" fill="none" xmlns="http://www.w3.org/2000/svg">
<path d="M10 22V21H5C4.45 21 3.97933 20.8043 3.588 20.413C3.19667 20.0217 3.00067 19.5507 3 19V5C3 4.45 3.196 3.97934 3.588 3.588C3.98 3.19667 4.45067 3.00067 5 3H10V2C10 1.71667 10.096 1.47934 10.288 1.288C10.48 1.09667 10.7173 1.00067 11 1C11.2827 0.999337 11.5203 1.09534 11.713 1.288C11.9057 1.48067 12.0013 1.718 12 2V22C12 22.2833 11.904 22.521 11.712 22.713C11.52 22.905 11.2827 23.0007 11 23C10.7173 22.9993 10.48 22.9033 10.288 22.712C10.096 22.5207 10 22.2833 10 22ZM15 21C14.7167 21 14.4793 20.904 14.288 20.712C14.0967 20.52 14.0007 20.2827 14 20C13.9993 19.7173 14.0953 19.48 14.288 19.288C14.4807 19.096 14.718 19 15 19H19V5H15C14.7167 5 14.4793 4.904 14.288 4.712C14.0967 4.52 14.0007 4.28267 14 4C13.9993 3.71734 14.0953 3.48 14.288 3.288C14.4807 3.096 14.718 3 15 3H19C19.55 3 20.021 3.196 20.413 3.588C20.805 3.98 21.0007 4.45067 21 5V19C21 19.55 20.8043 20.021 20.413 20.413C20.0217 20.805 19.5507 21.0007 19 21H15ZM15 13C14.7167 13 14.4793 12.904 14.288 12.712C14.0967 12.52 14.0007 12.2827 14 12C13.9993 11.7173 14.0953 11.48 14.288 11.288C14.4807 11.096 14.718 11 15 11H16C16.2833 11 16.521 11.096 16.713 11.288C16.905 11.48 17.0007 11.7173 17 12C16.9993 12.2827 16.9033 12.5203 16.712 12.713C16.5207 12.9057 16.2833 13.0013 16 13H15ZM15 9C14.7167 9 14.4793 8.904 14.288 8.712C14.0967 8.52 14.0007 8.28267 14 8C13.9993 7.71734 14.0953 7.48 14.288 7.288C14.4807 7.096 14.718 7 15 7H16C16.2833 7 16.521 7.096 16.713 7.288C16.905 7.48 17.0007 7.71734 17 8C16.9993 8.28267 16.9033 8.52034 16.712 8.713C16.5207 8.90567 16.2833 9.00134 16 9H15ZM8 17H9C9.28333 17 9.521 16.904 9.713 16.712C9.905 16.52 10.0007 16.2827 10 16C9.99933 15.7173 9.90333 15.48 9.712 15.288C9.52067 15.096 9.28333 15 9 15H8C7.71667 15 7.47933 15.096 7.288 15.288C7.09667 15.48 7.00067 15.7173 7 16C6.99933 16.2827 7.09533 16.5203 7.288 16.713C7.48067 16.9057 7.718 17.0013 8 17ZM8 13H9C9.28333 13 9.521 12.904 9.713 12.712C9.905 12.52 10.0007 12.2827 10 12C9.99933 11.7173 9.90333 11.48 9.712 11.288C9.52067 11.096 9.28333 11 9 11H8C7.71667 11 7.47933 11.096 7.288 11.288C7.09667 11.48 7.00067 11.7173 7 12C6.99933 12.2827 7.09533 12.5203 7.288 12.713C7.48067 12.9057 7.718 13.0013 8 13ZM8 9H9C9.28333 9 9.521 8.904 9.713 8.712C9.905 8.52 10.0007 8.28267 10 8C9.99933 7.71734 9.90333 7.48 9.712 7.288C9.52067 7.096 9.28333 7 9 7H8C7.71667 7 7.47933 7.096 7.288 7.288C7.09667 7.48 7.00067 7.71734 7 8C6.99933 8.28267 7.09533 8.52034 7.288 8.713C7.48067 8.90567 7.718 9.00134 8 9Z" fill="#269C7B"/>
</svg>
