<svg width="24" height="24" viewBox="0 0 24 24" fill="none" xmlns="http://www.w3.org/2000/svg">
<path fill-rule="evenodd" clip-rule="evenodd" d="M13.2316 1.36006C13.8636 0.60206 15.0946 1.12006 14.9946 2.10206L14.2886 9.00006H19.9996C20.1896 9.00013 20.3757 9.05434 20.536 9.15633C20.6963 9.25833 20.8243 9.40389 20.9049 9.57597C20.9855 9.74805 21.0153 9.93952 20.991 10.128C20.9667 10.3164 20.8892 10.4941 20.7676 10.6401L10.7676 22.6401C10.1356 23.3981 8.90463 22.8801 9.00463 21.8981L9.71063 15.0001H3.99963C3.80961 15 3.62355 14.9458 3.46323 14.8438C3.30291 14.7418 3.17497 14.5962 3.09438 14.4242C3.0138 14.2521 2.98391 14.0606 3.00822 13.8721C3.03252 13.6837 3.11002 13.5061 3.23163 13.3601L13.2316 1.36006Z" fill="#269C7B"/>
</svg>
