<svg width="24" height="24" viewBox="0 0 24 24" fill="none" xmlns="http://www.w3.org/2000/svg">
<g clip-path="url(#clip0_591_3456)">
<mask id="mask0_591_3456" style="mask-type:luminance" maskUnits="userSpaceOnUse" x="0" y="0" width="24" height="24">
<path d="M0 0H24V24H0V0Z" fill="white"/>
<path fill-rule="evenodd" clip-rule="evenodd" d="M16.1715 5.30681C16.3162 5.19406 16.4998 5.14337 16.6819 5.16587C16.8639 5.18837 17.0296 5.28223 17.1426 5.42681L18.5706 7.25635C18.6265 7.32805 18.6678 7.41007 18.692 7.49772C18.7163 7.58538 18.723 7.67695 18.7119 7.7672C18.7007 7.85746 18.6719 7.94464 18.6271 8.02377C18.5823 8.10289 18.5223 8.17241 18.4506 8.22835C18.3789 8.28429 18.2969 8.32557 18.2092 8.34981C18.1215 8.37406 18.03 8.3808 17.9397 8.36966C17.8495 8.35852 17.7623 8.3297 17.6832 8.28487C17.604 8.24003 17.5345 8.18005 17.4786 8.10835L16.0524 6.27697C15.9397 6.13224 15.889 5.94868 15.9115 5.7666C15.934 5.58452 16.0278 5.41882 16.1724 5.30589" fill="black"/>
<path fill-rule="evenodd" clip-rule="evenodd" d="M18.4459 7.13258C18.3736 7.07726 18.2912 7.03671 18.2033 7.01326C18.1154 6.98981 18.0237 6.98392 17.9335 6.99592C17.8434 7.00792 17.7564 7.03758 17.6777 7.08321C17.599 7.12883 17.53 7.18952 17.4748 7.26182L16.0477 9.12366C15.9891 9.19547 15.9454 9.27833 15.9194 9.36733C15.8934 9.45632 15.8855 9.54963 15.8963 9.64173C15.907 9.73383 15.9361 9.82283 15.9819 9.90345C16.0277 9.98408 16.0892 10.0547 16.1628 10.1111C16.2364 10.1675 16.3205 10.2085 16.4103 10.2318C16.5001 10.255 16.5936 10.26 16.6853 10.2464C16.777 10.2329 16.8651 10.201 16.9442 10.1527C17.0234 10.1045 17.0921 10.0408 17.1462 9.96551L18.5742 8.10366C18.6295 8.03143 18.6701 7.94901 18.6935 7.8611C18.717 7.77319 18.7228 7.68152 18.7108 7.59134C18.6988 7.50115 18.6692 7.41421 18.6236 7.3355C18.5779 7.25678 18.5182 7.18783 18.4459 7.13258Z" fill="black"/>
<path fill-rule="evenodd" clip-rule="evenodd" d="M5.05859 11.375C5.05859 10.151 5.54486 8.97701 6.41041 8.11146C7.27596 7.24591 8.4499 6.75964 9.67398 6.75964H16.9294C17.1742 6.75964 17.409 6.8569 17.5821 7.03001C17.7552 7.20312 17.8524 7.43791 17.8524 7.68272C17.8524 7.92754 17.7552 8.16232 17.5821 8.33543C17.409 8.50854 17.1742 8.6058 16.9294 8.6058H9.67398C8.93953 8.6058 8.23517 8.89755 7.71584 9.41689C7.19651 9.93622 6.90475 10.6406 6.90475 11.375V12.2981C6.90475 12.5429 6.80749 12.7777 6.63438 12.9508C6.46127 13.1239 6.22649 13.2212 5.98167 13.2212C5.73686 13.2212 5.50207 13.1239 5.32896 12.9508C5.15585 12.7777 5.05859 12.5429 5.05859 12.2981V11.375ZM7.83521 18.6932C7.76352 18.7492 7.6815 18.7904 7.59385 18.8147C7.50619 18.839 7.41461 18.8457 7.32435 18.8346C7.23408 18.8234 7.14689 18.7946 7.06777 18.7498C6.98864 18.7049 6.91913 18.6449 6.86321 18.5732L5.43706 16.7446C5.37889 16.6731 5.33556 16.5908 5.3096 16.5025C5.28364 16.4141 5.27558 16.3214 5.28589 16.2299C5.29621 16.1383 5.32468 16.0498 5.36964 15.9694C5.41461 15.889 5.47516 15.8184 5.54776 15.7617C5.62036 15.705 5.70354 15.6634 5.79243 15.6393C5.88133 15.6151 5.97414 15.609 6.06544 15.6211C6.15674 15.6333 6.24469 15.6636 6.32414 15.7102C6.40359 15.7568 6.47294 15.8188 6.52813 15.8926L7.95613 17.723C8.06888 17.8678 8.11957 18.0513 8.09707 18.2334C8.07457 18.4155 7.98072 18.5812 7.83613 18.6941" fill="black"/>
<path fill-rule="evenodd" clip-rule="evenodd" d="M5.56037 16.8675C5.70619 16.9789 5.89028 17.0279 6.0722 17.0037C6.25412 16.9794 6.41898 16.884 6.53053 16.7382L7.95853 14.8764C8.06349 14.7303 8.10745 14.549 8.08111 14.3711C8.05476 14.1931 7.96018 14.0324 7.81739 13.923C7.6746 13.8135 7.49482 13.764 7.31613 13.7848C7.13743 13.8056 6.97387 13.8952 6.86007 14.0345L5.43114 15.8955C5.37577 15.9676 5.33516 16.05 5.31163 16.1379C5.28811 16.2257 5.28214 16.3174 5.29405 16.4076C5.30597 16.4978 5.33554 16.5847 5.38108 16.6635C5.42662 16.7422 5.48723 16.8112 5.55945 16.8665" fill="black"/>
<path fill-rule="evenodd" clip-rule="evenodd" d="M18.9481 12.625C18.9481 13.849 18.4618 15.023 17.5963 15.8885C16.7307 16.7541 15.5568 17.2403 14.3327 17.2403H7.0764C6.83158 17.2403 6.59679 17.1431 6.42368 16.97C6.25057 16.7969 6.15332 16.5621 6.15332 16.3173C6.15332 16.0725 6.25057 15.8377 6.42368 15.6646C6.59679 15.4914 6.83158 15.3942 7.0764 15.3942H14.3318C15.0662 15.3942 15.7706 15.1024 16.2899 14.5831C16.8093 14.0638 17.101 13.3594 17.101 12.625V11.7019C17.101 11.4571 17.1983 11.2223 17.3714 11.0492C17.5445 10.8761 17.7793 10.7788 18.0241 10.7788C18.2689 10.7788 18.5037 10.8761 18.6768 11.0492C18.8499 11.2223 18.9472 11.4571 18.9472 11.7019L18.9481 12.625Z" fill="black"/>
</mask>
<g mask="url(#mask0_591_3456)">
<path d="M12 24C18.6274 24 24 18.6274 24 12C24 5.37258 18.6274 0 12 0C5.37258 0 0 5.37258 0 12C0 18.6274 5.37258 24 12 24Z" fill="#E07F01"/>
</g>
</g>
<defs>
<clipPath id="clip0_591_3456">
<rect width="24" height="24" fill="white"/>
</clipPath>
</defs>
</svg>
