<svg width="24" height="24" viewBox="0 0 24 24" fill="none" xmlns="http://www.w3.org/2000/svg">
<path d="M17.1426 11.0971L7.24256 20.9971H2.99956V16.7541L12.8996 6.85409L17.1426 11.0971ZM16.4356 3.31809C16.6231 3.13062 16.8774 3.02531 17.1426 3.02531C17.4077 3.02531 17.662 3.13062 17.8496 3.31809L20.6776 6.14809C20.865 6.33562 20.9703 6.58993 20.9703 6.85509C20.9703 7.12026 20.865 7.37457 20.6776 7.56209L18.5566 9.68209L14.3136 5.44009L16.4356 3.31809ZM4.52856 1.32009C4.5661 1.22585 4.63106 1.14503 4.71503 1.0881C4.79899 1.03117 4.89811 1.00073 4.99956 1.00073C5.10101 1.00073 5.20012 1.03117 5.28409 1.0881C5.36806 1.14503 5.43301 1.22585 5.47056 1.32009L5.72356 1.93209C6.14826 2.96679 6.95353 3.79927 7.97356 4.25809L8.69156 4.57809C8.78336 4.62057 8.86109 4.68844 8.91556 4.77367C8.97004 4.8589 8.99898 4.95794 8.99898 5.05909C8.99898 5.16025 8.97004 5.25929 8.91556 5.34452C8.86109 5.42975 8.78336 5.49761 8.69156 5.54009L7.93156 5.87809C6.93693 6.32442 6.14559 7.12717 5.71356 8.12809L5.46656 8.69409C5.42811 8.78626 5.36325 8.86499 5.28015 8.92037C5.19705 8.97574 5.09942 9.00529 4.99956 9.00529C4.89969 9.00529 4.80206 8.97574 4.71896 8.92037C4.63586 8.86499 4.571 8.78626 4.53256 8.69409L4.28556 8.12909C3.85348 7.12762 3.06174 6.32446 2.06656 5.87809L1.30656 5.54009C1.21448 5.49774 1.13647 5.42986 1.08179 5.34452C1.02711 5.25918 0.998047 5.15995 0.998047 5.05859C0.998047 4.95724 1.02711 4.85801 1.08179 4.77267C1.13647 4.68732 1.21448 4.61945 1.30656 4.57709L2.02456 4.25709C3.04477 3.79871 3.8504 2.9666 4.27556 1.93209L4.52856 1.32009Z" fill="#269C7B"/>
</svg>
