<svg width="24" height="24" viewBox="0 0 24 24" fill="none" xmlns="http://www.w3.org/2000/svg">
<path d="M17.1426 11.097L7.24256 20.997H2.99956V16.754L12.8996 6.85397L17.1426 11.097ZM16.4356 3.31797C16.6231 3.1305 16.8774 3.02519 17.1426 3.02519C17.4077 3.02519 17.662 3.1305 17.8496 3.31797L20.6776 6.14797C20.865 6.3355 20.9703 6.58981 20.9703 6.85497C20.9703 7.12014 20.865 7.37444 20.6776 7.56197L18.5566 9.68197L14.3136 5.43997L16.4356 3.31797ZM4.52856 1.31997C4.5661 1.22573 4.63106 1.14491 4.71503 1.08798C4.79899 1.03104 4.89811 1.00061 4.99956 1.00061C5.10101 1.00061 5.20012 1.03104 5.28409 1.08798C5.36806 1.14491 5.43301 1.22573 5.47056 1.31997L5.72356 1.93197C6.14826 2.96667 6.95353 3.79914 7.97356 4.25797L8.69156 4.57797C8.78336 4.62045 8.86109 4.68831 8.91556 4.77355C8.97004 4.85878 8.99898 4.95782 8.99898 5.05897C8.99898 5.16013 8.97004 5.25917 8.91556 5.3444C8.86109 5.42963 8.78336 5.49749 8.69156 5.53997L7.93156 5.87797C6.93693 6.3243 6.14559 7.12705 5.71356 8.12797L5.46656 8.69397C5.42811 8.78614 5.36325 8.86487 5.28015 8.92025C5.19705 8.97562 5.09942 9.00517 4.99956 9.00517C4.89969 9.00517 4.80206 8.97562 4.71896 8.92025C4.63586 8.86487 4.571 8.78614 4.53256 8.69397L4.28556 8.12897C3.85348 7.1275 3.06174 6.32434 2.06656 5.87797L1.30656 5.53997C1.21448 5.49761 1.13647 5.42974 1.08179 5.3444C1.02711 5.25906 0.998047 5.15983 0.998047 5.05847C0.998047 4.95712 1.02711 4.85789 1.08179 4.77254C1.13647 4.6872 1.21448 4.61933 1.30656 4.57697L2.02456 4.25697C3.04477 3.79859 3.8504 2.96648 4.27556 1.93197L4.52856 1.31997Z" fill="#269C7B"/>
</svg>
