<svg width="24" height="24" viewBox="0 0 24 24" fill="none" xmlns="http://www.w3.org/2000/svg">
<path d="M12 2C12.2652 2 12.5196 2.10536 12.7071 2.29289C12.8946 2.48043 13 2.73478 13 3C13 3.26522 12.8946 3.51957 12.7071 3.70711C12.5196 3.89464 12.2652 4 12 4C10.4177 4 8.87103 4.46919 7.55544 5.34824C6.23984 6.22729 5.21447 7.47672 4.60896 8.93853C4.00346 10.4003 3.84504 12.0089 4.15372 13.5607C4.4624 15.1126 5.22433 16.538 6.34315 17.6569C7.46197 18.7757 8.88743 19.5376 10.4393 19.8463C11.9911 20.155 13.5997 19.9965 15.0615 19.391C16.5233 18.7855 17.7727 17.7602 18.6518 16.4446C19.5308 15.129 20 13.5823 20 12C20 11.7348 20.1054 11.4804 20.2929 11.2929C20.4804 11.1054 20.7348 11 21 11C21.2652 11 21.5196 11.1054 21.7071 11.2929C21.8946 11.4804 22 11.7348 22 12C22 17.523 17.523 22 12 22C6.477 22 2 17.523 2 12C2 6.477 6.477 2 12 2ZM12 6C12.2652 6 12.5196 6.10536 12.7071 6.29289C12.8946 6.48043 13 6.73478 13 7C13 7.26522 12.8946 7.51957 12.7071 7.70711C12.5196 7.89464 12.2652 8 12 8C11.2089 8 10.4355 8.2346 9.77772 8.67412C9.11992 9.11365 8.60723 9.73836 8.30448 10.4693C8.00173 11.2002 7.92252 12.0044 8.07686 12.7804C8.2312 13.5563 8.61216 14.269 9.17157 14.8284C9.73098 15.3878 10.4437 15.7688 11.2196 15.9231C11.9956 16.0775 12.7998 15.9983 13.5307 15.6955C14.2616 15.3928 14.8864 14.8801 15.3259 14.2223C15.7654 13.5645 16 12.7911 16 12C16 11.7348 16.1054 11.4804 16.2929 11.2929C16.4804 11.1054 16.7348 11 17 11C17.2652 11 17.5196 11.1054 17.7071 11.2929C17.8946 11.4804 18 11.7348 18 12C18 13.1867 17.6481 14.3467 16.9888 15.3334C16.3295 16.3201 15.3925 17.0892 14.2961 17.5433C13.1997 17.9974 11.9933 18.1162 10.8295 17.8847C9.66557 17.6532 8.59647 17.0818 7.75736 16.2426C6.91824 15.4035 6.3468 14.3344 6.11529 13.1705C5.88378 12.0067 6.0026 10.8003 6.45672 9.7039C6.91085 8.60754 7.67988 7.67047 8.66658 7.01118C9.65327 6.35189 10.8133 6 12 6ZM18.571 2.1C18.7036 2.1 18.8308 2.15268 18.9246 2.24645C19.0183 2.34021 19.071 2.46739 19.071 2.6V4.43C19.0713 4.56243 19.1241 4.68935 19.2178 4.78291C19.3115 4.87646 19.4386 4.929 19.571 4.929H21.4C21.5326 4.929 21.6598 4.98168 21.7536 5.07545C21.8473 5.16921 21.9 5.29639 21.9 5.429V6.344L20.012 8.232C19.637 8.6071 19.1284 8.81789 18.598 8.818H16.598L12.708 12.707C12.5194 12.8892 12.2668 12.99 12.0046 12.9877C11.7424 12.9854 11.4916 12.8802 11.3062 12.6948C11.1208 12.5094 11.0156 12.2586 11.0133 11.9964C11.011 11.7342 11.1118 11.4816 11.294 11.293L15.184 7.404V5.404C15.1838 4.87375 15.3943 4.36515 15.769 3.99L17.659 2.1H18.571Z" fill="#269C7B"/>
</svg>
