<svg width="16" height="16" viewBox="0 0 16 16" fill="none" xmlns="http://www.w3.org/2000/svg">
<path d="M7.71983 3.18397C8.18316 2.00397 8.41516 1.4133 8.89916 1.34063C9.38316 1.2673 9.79916 1.76063 10.6325 2.74663L10.8478 3.0013C11.0845 3.2813 11.2025 3.4213 11.3638 3.5013C11.5238 3.5813 11.7092 3.59263 12.0798 3.61463L12.4172 3.63397C13.7205 3.70997 14.3718 3.74863 14.5978 4.17397C14.8245 4.60063 14.4752 5.13263 13.7772 6.19597L13.5965 6.4713C13.3978 6.7733 13.2985 6.92463 13.2718 7.0973C13.2452 7.26997 13.2938 7.44397 13.3912 7.79263L13.4798 8.11063C13.8218 9.33863 13.9932 9.95197 13.6485 10.288C13.3038 10.6246 12.6718 10.46 11.4078 10.1313L11.0812 10.0466C10.7212 9.9533 10.5418 9.90663 10.3645 9.9333C10.1872 9.95997 10.0318 10.0566 9.72183 10.2506L9.43916 10.4273C8.34716 11.11 7.80183 11.4513 7.3625 11.2326C6.92316 11.0146 6.8825 10.3813 6.79916 9.11463L6.77716 8.78663C6.75383 8.42663 6.74183 8.24663 6.65916 8.09063C6.5765 7.93463 6.4325 7.81997 6.14316 7.59063L5.87983 7.38263C4.8625 6.57663 4.35316 6.1733 4.4265 5.70263C4.49983 5.23197 5.1065 5.00463 6.31916 4.54997L6.6325 4.43263C6.97783 4.3033 7.14983 4.2393 7.27583 4.11597C7.4025 3.99263 7.46783 3.82463 7.59983 3.4893L7.71983 3.18397Z" fill="white"/>
<path opacity="0.5" d="M3.54 6.39526C1.91533 7.9466 0.849996 10.5373 1.554 14.6666C2.18266 12.9313 3.90466 11.4933 5.94133 10.6353C5.87066 10.2399 5.83866 9.75726 5.80533 9.2486L5.77933 8.85193C5.77315 8.75631 5.76604 8.66075 5.758 8.56526L5.70066 8.51793L5.522 8.3746L5.20533 8.12393C4.74266 7.75726 4.312 7.41726 4.01666 7.1026C3.848 6.92326 3.65933 6.6866 3.54 6.39526ZM6.898 10.2819L6.888 10.2059L6.92533 10.2733L6.898 10.2819Z" fill="white"/>
</svg>
