<svg width="28" height="28" viewBox="0 0 28 28" fill="none" xmlns="http://www.w3.org/2000/svg">
<mask id="mask0_773_115" style="mask-type:alpha" maskUnits="userSpaceOnUse" x="0" y="0" width="28" height="28">
<rect width="28" height="28" fill="#D9D9D9"/>
</mask>
<g mask="url(#mask0_773_115)">
<path d="M6.65756 22.4C6.36084 22.4 6.11039 22.2994 5.90623 22.0981C5.70206 21.8969 5.59998 21.6475 5.59998 21.35V12.2427C5.59998 11.9559 5.70031 11.7104 5.90098 11.5062C6.10184 11.3021 6.35063 11.2 6.64735 11.2H8.74239C9.03911 11.2 9.28956 11.3006 9.49373 11.5019C9.69789 11.7031 9.79998 11.9525 9.79998 12.25V21.3573C9.79998 21.6441 9.69964 21.8896 9.49898 22.0937C9.29811 22.2979 9.04932 22.4 8.7526 22.4H6.65756ZM6.65756 9.79998C6.36084 9.79998 6.11039 9.69964 5.90623 9.49898C5.70206 9.29811 5.59998 9.04932 5.59998 8.7526V6.65756C5.59998 6.36084 5.70031 6.11039 5.90098 5.90623C6.10184 5.70206 6.35063 5.59998 6.64735 5.59998H8.74239C9.03911 5.59998 9.28956 5.70031 9.49373 5.90098C9.69789 6.10184 9.79998 6.35063 9.79998 6.64735V8.74239C9.79998 9.03911 9.69964 9.28956 9.49898 9.49373C9.29811 9.69789 9.04932 9.79998 8.7526 9.79998H6.65756ZM12.9576 22.4C12.6608 22.4 12.4104 22.2994 12.2062 22.0984C12.0021 21.8973 11.9 21.6483 11.9 21.3511V15.0581C11.9 14.761 12.0003 14.5104 12.201 14.3062C12.4018 14.1021 12.6506 14 12.9474 14H15.0424C15.3391 14 15.5896 14.1005 15.7937 14.3016C15.9979 14.5026 16.1 14.7517 16.1 15.0488V21.3418C16.1 21.6389 15.9996 21.8896 15.799 22.0937C15.5981 22.2979 15.3493 22.4 15.0526 22.4H12.9576ZM12.9576 12.6C12.6608 12.6 12.4104 12.4996 12.2062 12.299C12.0021 12.0981 11.9 11.8493 11.9 11.5526V9.45756C11.9 9.16084 12.0003 8.91039 12.201 8.70623C12.4018 8.50206 12.6506 8.39998 12.9474 8.39998H15.0424C15.3391 8.39998 15.5896 8.50031 15.7937 8.70098C15.9979 8.90184 16.1 9.15063 16.1 9.44735V11.5424C16.1 11.8391 15.9996 12.0896 15.799 12.2937C15.5981 12.4979 15.3493 12.6 15.0526 12.6H12.9576ZM19.2576 22.4C18.9608 22.4 18.7104 22.2994 18.5062 22.0981C18.3021 21.8969 18.2 21.6475 18.2 21.35V17.85C18.2 17.5525 18.3003 17.3031 18.501 17.1019C18.7018 16.9006 18.9506 16.8 19.2474 16.8H21.3424C21.6391 16.8 21.8896 16.9006 22.0937 17.1019C22.2979 17.3031 22.4 17.5525 22.4 17.85V21.35C22.4 21.6475 22.2996 21.8969 22.099 22.0981C21.8981 22.2994 21.6493 22.4 21.3526 22.4H19.2576ZM19.2576 15.4C18.9608 15.4 18.7104 15.2996 18.5062 15.099C18.3021 14.8981 18.2 14.6493 18.2 14.3526V12.2576C18.2 11.9608 18.3003 11.7104 18.501 11.5062C18.7018 11.3021 18.9506 11.2 19.2474 11.2H21.3424C21.6391 11.2 21.8896 11.3003 22.0937 11.501C22.2979 11.7018 22.4 11.9506 22.4 12.2473V14.3424C22.4 14.6391 22.2996 14.8896 22.099 15.0937C21.8981 15.2979 21.6493 15.4 21.3526 15.4H19.2576Z" fill="#29AB87"/>
</g>
</svg>
