<svg width="207" height="230" viewBox="0 0 207 230" fill="none" xmlns="http://www.w3.org/2000/svg">
<path d="M0 229.048V5.41059H41.8254L45.3851 44.6373C52.2076 30.8103 62.1449 19.9891 75.1968 12.1738C88.5453 4.05795 103.822 0 121.027 0C147.724 0 168.637 8.41647 183.765 25.2494C199.19 42.0823 206.902 67.1814 206.902 100.547V229.048H160.183V105.506C160.183 62.2217 142.681 40.5794 107.678 40.5794C90.1768 40.5794 75.6418 46.8917 64.073 59.5164C52.8009 72.1411 47.1649 90.1763 47.1649 113.622V229.048H0Z" fill="url(#paint0_linear_315_1371)"/>
<defs>
<linearGradient id="paint0_linear_315_1371" x1="103.451" y1="458.096" x2="103.451" y2="8.98345e-06" gradientUnits="userSpaceOnUse">
<stop offset="0.3" stop-color="#1D7C62"/>
<stop offset="1" stop-color="#18B98C"/>
</linearGradient>
</defs>
</svg>
