<svg width="12" height="12" viewBox="0 0 12 12" fill="none" xmlns="http://www.w3.org/2000/svg">
<path opacity="0.3" d="M6.13855 0.0445504C6.18886 0.0653079 6.25109 0.12165 6.27475 0.169095C6.29841 0.213576 6.44052 0.685069 6.59155 1.21587C6.74258 1.74667 6.91726 2.30712 6.98241 2.46132C7.43832 3.58519 8.40055 4.54894 9.52573 5.00856C9.67967 5.07084 10.26 5.25173 10.8196 5.41186C11.8973 5.72025 11.9535 5.74694 11.995 5.93079C12.0216 6.05237 11.9388 6.2125 11.8232 6.26588C11.77 6.2896 11.2962 6.43194 10.7663 6.58317C10.2363 6.73441 9.67967 6.90937 9.52573 6.97163C8.39764 7.43423 7.44132 8.39204 6.98241 9.51889C6.91726 9.67307 6.74258 10.2336 6.59155 10.7644C6.44052 11.2952 6.29841 11.7695 6.27475 11.8229C6.22144 11.9386 6.06158 12.0217 5.94021 11.995C5.75661 11.9534 5.72995 11.8971 5.42206 10.8177C5.11418 9.73531 4.9898 9.3884 4.7648 8.99402C4.29397 8.16964 3.51826 7.45202 2.68331 7.06356C2.36951 6.91826 2.10894 6.83227 1.07565 6.5387C0.110425 6.26291 0.0452814 6.23326 0.00388145 6.04941C-0.016861 5.94858 0.0482826 5.78549 0.134083 5.73212C0.166655 5.71136 0.616739 5.57495 1.13488 5.42668C2.405 5.06194 2.64783 4.97002 3.09783 4.69423C3.97426 4.15158 4.64926 3.36576 5.01937 2.45835C5.0816 2.30415 5.25629 1.74667 5.40723 1.21587C5.55826 0.685069 5.70038 0.213576 5.72403 0.169095C5.76252 0.0890306 5.91946 -0.00289545 6.00535 6.99135e-05C6.02609 0.00303527 6.08523 0.0208274 6.13855 0.0445504Z" fill="black"/>
</svg>
