<svg width="219" height="235" viewBox="0 0 219 235" fill="none" xmlns="http://www.w3.org/2000/svg">
<path d="M111.238 234.459C89.5835 234.459 70.3023 229.649 53.3942 220.03C36.7827 210.111 23.7307 196.434 14.2384 179C4.74615 161.566 0 141.276 0 118.131C0 94.6852 4.59783 74.0949 13.7935 56.3602C23.2858 38.6255 36.3376 24.7985 52.9492 14.8791C69.8573 4.9597 89.4352 0 111.683 0C133.337 0 152.173 4.9597 168.192 14.8791C184.21 24.4979 196.669 37.4232 205.568 53.655C214.467 69.8867 218.916 87.7717 218.916 107.31C218.916 110.316 218.768 113.622 218.471 117.229C218.471 120.536 218.323 124.293 218.026 128.501H46.2749C47.7581 150.144 54.729 166.676 67.1876 178.098C79.9429 189.22 94.6263 194.781 111.238 194.781C124.586 194.781 135.71 191.775 144.609 185.763C153.805 179.451 160.627 171.035 165.077 160.514H212.242C206.309 181.555 194.444 199.14 176.646 213.267C159.144 227.395 137.342 234.459 111.238 234.459ZM111.238 39.2267C95.5162 39.2267 81.5744 44.0361 69.4124 53.655C57.2504 62.9732 49.8345 77.1008 47.1648 96.0379H171.751C170.861 78.6038 164.78 64.7767 153.508 54.5567C142.236 44.3367 128.146 39.2267 111.238 39.2267Z" fill="url(#paint0_linear_315_1369)"/>
<defs>
<linearGradient id="paint0_linear_315_1369" x1="109.458" y1="468.917" x2="109.458" y2="9.19566e-06" gradientUnits="userSpaceOnUse">
<stop offset="0.3" stop-color="#1D7C62"/>
<stop offset="1" stop-color="#18B98C"/>
</linearGradient>
</defs>
</svg>
