<svg width="99" height="37" viewBox="0 0 99 37" fill="none" xmlns="http://www.w3.org/2000/svg">
<path d="M60.0896 36.4368H68.2253L55.071 18.2182L68.2253 0H60.0896L50.8416 12.9123L41.5933 0H33.458L46.6123 18.2182L33.458 36.4368H41.5933L50.8416 23.5241L60.0896 36.4368ZM30.453 36.4368V30.1275H6.60789V21.3607H30.453V15.0522H6.60789V6.28237H30.453V0H5.75828C2.57828 0 0 2.5779 0 5.75826V30.6785C0 33.8589 2.57828 36.4368 5.75828 36.4368H30.453ZM76.9491 36.4368H98.8023V29.7605H78.7749V0H71.1908V30.6785C71.1908 33.8589 73.7688 36.4368 76.9491 36.4368Z" fill="#0D352A"/>
</svg>
