<svg width="125" height="40" viewBox="0 0 125 40" fill="none" xmlns="http://www.w3.org/2000/svg">
<g clip-path="url(#clip0_591_3606)">
<path d="M24.209 0C28.4867 10.9281 32.7966 21.8443 37.1429 32.7441C37.8733 34.5803 38.523 35.7668 39.084 36.3034C40.1332 37.3083 41.4569 37.8571 43.0549 37.9581C43.1719 37.9661 43.2446 38.0266 43.2728 38.1397L43.3131 38.3172C43.3414 38.4302 43.2567 38.5392 43.1397 38.5392H27.3769C27.2276 38.5392 27.1509 38.4625 27.1509 38.3092V38.1518C27.1509 38.0468 27.2034 37.9903 27.3083 37.9823C29.0113 37.841 31.6707 37.2075 31.0855 34.8104C30.7264 33.3213 30.3632 32.0661 30.0041 31.0452C29.1808 28.7167 28.1436 26.0048 26.8927 22.9136C26.8523 22.8087 26.7393 22.7523 26.6303 22.7765L10.916 26.5617C10.8152 26.59 10.7426 26.6506 10.6981 26.7474C9.56417 29.3503 8.59157 31.9935 7.7724 34.6691C7.65937 35.0444 7.63119 35.4076 7.68765 35.7586C7.97414 37.4859 10.2179 37.841 12.2114 37.9862C12.3083 37.9944 12.3688 38.0428 12.3891 38.1356L12.4133 38.2365C12.4576 38.414 12.3245 38.5835 12.1429 38.5835L0 38.5795V37.9741C2.41724 37.845 4.08397 36.7433 5.00804 34.6651C9.10005 25.4479 13.4584 15.6174 18.0872 5.17753C18.2809 4.73772 18.3616 4.39874 18.3334 4.15254C18.2446 3.42208 17.3971 2.92978 16.8765 2.72397C15.9121 2.34063 15.9281 2.02179 16.9249 1.77162L23.9911 0L24.209 0ZM26.1017 21.4165C26.1824 21.3963 26.2268 21.3116 26.1945 21.2308L19.9153 5.66993C19.8668 5.5569 19.7094 5.55283 19.661 5.66586L11.5295 24.7014C11.485 24.8022 11.5779 24.9153 11.6869 24.887L26.1017 21.4165Z" fill="#0D352A"/>
<path d="M124.697 37.9252V38.579L110.924 38.583C110.807 38.583 110.746 38.5225 110.746 38.4055V38.2925C110.75 38.0947 110.847 37.9857 111.045 37.9656C111.807 37.8808 112.377 37.7517 112.744 37.5822C114.285 36.876 115.056 35.7864 115.06 34.3094C115.068 20.407 115.068 10.5806 115.06 4.82195C115.06 3.70815 113.518 2.94544 112.57 2.71135C112.433 2.67503 112.36 2.59028 112.356 2.44907C112.348 2.31987 112.368 2.20287 112.413 2.09392C112.461 1.97692 112.55 1.90021 112.675 1.87193L120.234 0.0479103C120.351 0.0196294 120.411 0.0680555 120.411 0.18515C120.411 13.006 120.407 24.2408 120.403 33.8898C120.399 36.529 121.832 37.8728 124.697 37.9252Z" fill="#0D352A"/>
<path d="M53.6679 13.475C48.3814 12.9302 45.3669 18.249 44.8786 22.7769C44.3297 27.8495 46.1255 33.2772 51.3717 35.0811C54.7575 36.2474 58.0989 35.9488 61.3959 34.1893C62.0779 33.822 62.4048 33.362 62.9294 32.914C63.0424 32.8132 63.22 32.8696 63.2603 33.0149C63.2684 33.0593 63.2764 33.0916 63.2846 33.1198C63.3451 33.3701 63.2967 33.596 63.1352 33.8019C59.7655 37.9988 54.5718 39.8914 49.3539 38.818C41.8236 37.2603 36.642 29.5726 39.1562 21.9052C40.7502 17.0142 44.814 13.6849 49.8745 12.8293C52.8124 12.3289 55.6655 12.7566 58.4338 14.1126C60.3588 15.0569 61.7793 16.4815 62.6873 18.3781C62.764 18.5314 62.6752 18.7171 62.5097 18.7534L57.5783 19.9157C57.3403 19.9721 57.2474 19.8834 57.2918 19.6452C57.8689 16.768 56.8923 13.8099 53.6679 13.475Z" fill="#0D352A"/>
<path d="M78.0993 13.4744C72.8087 12.9538 69.8184 18.2928 69.3503 22.8247C68.8297 27.9054 70.6538 33.3291 75.9121 35.1047C79.3059 36.2548 82.6473 35.9401 85.9363 34.1604C86.6182 33.7932 86.9451 33.3291 87.4657 32.8771C87.5787 32.7803 87.7562 32.8328 87.7966 32.978C87.8087 33.0224 87.8168 33.0547 87.8208 33.0829C87.8854 33.3332 87.837 33.5591 87.6756 33.765C84.3261 37.9821 79.1404 39.903 73.9104 38.8538C66.368 37.3364 61.1461 29.6689 63.6199 21.9812C65.1937 17.0821 69.2414 13.7286 74.3019 12.8449C77.2397 12.3323 80.0969 12.7439 82.8733 14.0878C84.8063 15.024 86.2308 16.4405 87.1509 18.3332C87.2276 18.4865 87.1388 18.6722 86.9734 18.7125L82.046 19.8989C81.808 19.9594 81.7151 19.8667 81.7595 19.6286C82.3204 16.7472 81.3277 13.7932 78.0993 13.4744Z" fill="#0D352A"/>
<path d="M93.7247 25.7633C94.0435 30.0975 95.9563 33.0958 99.4632 34.7544C102.744 36.3041 106.941 35.9974 110.085 34.3227C110.625 34.0362 111.203 33.568 111.82 32.9103C111.981 32.7408 112.09 32.769 112.143 32.995L112.191 33.2048C112.248 33.4309 112.191 33.673 112.038 33.8505C110.081 36.1144 108.059 37.5914 105.968 38.2815C100.605 40.0531 95.8433 39.1411 91.6787 35.5454C89.2292 33.4309 87.5786 29.9563 87.4333 26.5664C87.2437 22.2605 88.8094 18.6931 92.1266 15.8643C96.4447 12.1878 102.914 11.6028 107.841 14.4518C110.299 15.8723 111.767 18.0031 112.252 20.8481C112.272 20.9813 112.219 21.0619 112.09 21.0902L93.9426 25.4647C93.7852 25.5011 93.7126 25.6019 93.7247 25.7633ZM95.3067 17.6278C94.1726 19.6334 93.6198 21.6875 93.6561 23.79C93.6602 23.9353 93.7328 23.9917 93.874 23.9554C97.0055 23.2048 100.533 22.3573 104.459 21.4171C106.767 20.8602 106.457 17.3937 105.847 15.7956C105.504 14.8997 104.496 13.9675 103.6 13.7093C100.097 12.7004 97.0298 14.5931 95.3067 17.6278Z" fill="#0D352A"/>
</g>
<defs>
<clipPath id="clip0_591_3606">
<rect width="124.746" height="40" fill="white"/>
</clipPath>
</defs>
</svg>
