<svg width="182" height="26" viewBox="0 0 182 26" fill="none" xmlns="http://www.w3.org/2000/svg">
<g style="mix-blend-mode:luminosity" opacity="0.8">
<path d="M48.6886 18.9514C49.1455 19.1349 49.8225 19.2531 50.7198 19.3076V19.6912H40.5933V19.3076C41.4887 19.2531 42.1676 19.1349 42.6244 18.9514C43.0812 18.7696 43.3979 18.4769 43.5708 18.0734C43.7437 17.6717 43.8311 17.0773 43.8311 16.2921V4.0662H43.7492L36.8059 20.0474H36.724L29.2856 4.12255H29.2037V16.2921C29.2037 17.0773 29.2947 17.6717 29.4785 18.0734C29.6605 18.4751 29.9772 18.7678 30.4249 18.9514C30.8727 19.1349 31.5461 19.2531 32.4415 19.3076V19.6912H24.7156V19.3076C25.611 19.2531 26.2844 19.1349 26.7322 18.9514C27.1799 18.7696 27.4966 18.4769 27.6786 18.0734C27.8606 17.6717 27.9534 17.0773 27.9534 16.2921V4.03893C27.9534 3.25368 27.8624 2.6593 27.6786 2.25759C27.4947 1.85587 27.1799 1.56322 26.7322 1.37964C26.2826 1.19787 25.611 1.0779 24.7156 1.02337V0.639831H31.6462L37.9761 14.4416L44.115 0.639831H50.7198V1.02337C49.8225 1.0779 49.1455 1.19787 48.6886 1.37964C48.2318 1.56322 47.9115 1.85951 47.7277 2.27031C47.5439 2.68111 47.4529 3.27004 47.4529 4.03893V16.2921C47.4529 17.0773 47.5439 17.6717 47.7277 18.0734C47.9115 18.4769 48.2318 18.7678 48.6886 18.9514ZM62.4478 9.7138C63.0139 10.7553 63.2978 11.9332 63.2978 13.2492C63.2978 14.5652 63.0139 15.7431 62.4478 16.7847C61.88 17.8262 61.0901 18.6314 60.0746 19.1967C59.059 19.7639 57.9015 20.0474 56.602 20.0474C55.3025 20.0474 54.1505 19.7639 53.144 19.1967C52.1375 18.6314 51.3458 17.8262 50.7707 16.7847C50.1938 15.7431 49.9062 14.5652 49.9062 13.2492C49.9062 11.9332 50.1938 10.7553 50.7707 9.7138C51.3477 8.67225 52.1375 7.86883 53.144 7.30171C54.1505 6.73458 55.3025 6.45102 56.602 6.45102C57.9015 6.45102 59.059 6.73458 60.0746 7.30171C61.0901 7.86883 61.88 8.67225 62.4478 9.7138ZM59.7033 13.2492C59.7033 11.9514 59.5795 10.8371 59.332 9.90465C59.0845 8.97217 58.7278 8.26509 58.2618 7.77976C57.7959 7.29625 57.2408 7.05268 56.602 7.05268C55.9614 7.05268 55.4081 7.29444 54.9422 7.77976C54.4762 8.26509 54.1195 8.97217 53.872 9.90465C53.6245 10.8371 53.5007 11.9514 53.5007 13.2492C53.5007 14.5471 53.6245 15.6613 53.872 16.5938C54.1195 17.5263 54.4762 18.2334 54.9422 18.7187C55.4081 19.204 55.9614 19.4458 56.602 19.4458C57.2426 19.4458 57.7959 19.204 58.2618 18.7187C58.7278 18.2352 59.0845 17.5263 59.332 16.5938C59.5795 15.6613 59.7033 14.5471 59.7033 13.2492ZM72.6034 9.38479C73.0785 9.38479 73.5098 9.46659 73.8938 9.632V6.61643C73.6554 6.50737 73.3733 6.45284 73.0439 6.45284C72.2012 6.45284 71.4568 6.82365 70.8071 7.56346C70.1574 8.30326 69.6514 9.15394 69.1818 10.848H69.12V6.5619H69.0108L63.5762 8.12512V8.48139C64.1987 8.48139 64.6792 8.54138 65.0177 8.65953C65.3562 8.77768 65.5983 8.97036 65.7457 9.23574C65.8913 9.50112 65.9659 9.86103 65.9659 10.3191V17.1173C65.9659 17.6844 65.9113 18.1043 65.8021 18.3788C65.6929 18.6533 65.4909 18.8587 65.1979 18.995C64.9048 19.1313 64.4389 19.2367 63.7983 19.3094V19.693H71.4277V19.3094C70.7871 19.2549 70.3066 19.1586 69.9863 19.0222C69.666 18.8859 69.4421 18.6751 69.3147 18.3915C69.1873 18.1079 69.1218 17.6826 69.1218 17.1173V11.7296C69.6969 10.3791 70.9636 9.38479 72.6034 9.38479ZM112.653 18.3624C112.543 18.0789 112.489 17.6553 112.489 17.0882V10.8371C112.489 7.90155 110.862 6.45102 108.729 6.45102C106.596 6.45102 105.225 7.95971 104.639 8.76314H104.584V6.5619H104.475L99.0408 8.12512V8.48139C99.645 8.48139 100.12 8.54138 100.468 8.65953C100.815 8.77768 101.063 8.9649 101.208 9.2212C101.354 9.47749 101.429 9.83376 101.429 10.29V17.0864C101.429 17.6535 101.374 18.0789 101.265 18.3606C101.156 18.6442 100.954 18.8532 100.661 18.9913C100.368 19.1277 99.9016 19.2331 99.261 19.3058V19.6893H106.397V19.3058C105.904 19.2331 105.524 19.1277 105.258 18.9913C104.992 18.855 104.814 18.6442 104.723 18.3606C104.632 18.077 104.586 17.6535 104.586 17.0864V9.75924C105.218 8.99399 105.96 8.25963 107.167 8.25963C108.825 8.25963 109.335 9.5084 109.335 10.9189V17.0864C109.335 17.6535 109.284 18.0789 109.184 18.3606C109.084 18.6442 108.909 18.8532 108.661 18.9913C108.414 19.1277 108.035 19.2331 107.522 19.3058V19.6893H114.576V19.3058C113.972 19.2331 113.528 19.1277 113.246 18.9913C112.958 18.855 112.764 18.646 112.653 18.3624ZM182 15.9085C181.394 17.23 179.703 20.0474 176.263 20.0474C172.996 20.0474 170.281 17.379 170.281 13.3601C170.281 12.0986 170.556 10.9389 171.104 9.87921C171.653 8.81949 172.398 7.98334 173.34 7.37078C174.283 6.75821 175.321 6.45284 176.456 6.45284C179.752 6.45284 181.396 8.77223 181.396 11.1898V11.7351H173.218C173.218 11.7842 173.217 11.8314 173.217 11.8805C173.217 14.7888 174.513 17.5826 177.772 17.5826C180.251 17.5826 181.288 16.2121 181.696 15.7195L182 15.9085ZM173.275 10.8099H178.404C178.369 8.82312 177.776 7.08904 176.154 7.08176C174.633 7.07631 173.53 8.49412 173.275 10.8099ZM145.598 18.3624C145.489 18.0789 145.434 17.6553 145.434 17.0882V10.8371C145.434 9.88648 145.274 9.08305 144.954 8.42505C144.634 7.76704 144.19 7.27444 143.623 6.94544C143.056 6.61643 142.406 6.45284 141.674 6.45284C140.832 6.45284 140.087 6.66733 139.437 7.09631C138.788 7.52528 138.171 8.1433 137.585 8.94673H137.53V0H137.421L131.986 1.56322V1.91949C132.591 1.91949 133.066 1.97948 133.413 2.09763C133.761 2.21578 134.008 2.403 134.154 2.6593C134.3 2.91559 134.374 3.27186 134.374 3.72811V17.0864C134.374 17.6535 134.32 18.0789 134.21 18.3606C134.101 18.6442 133.899 18.8532 133.606 18.9913C133.313 19.1277 132.847 19.2331 132.207 19.3058V19.6893H139.343V19.3058C138.85 19.2331 138.469 19.1277 138.204 18.9913C137.938 18.855 137.759 18.6442 137.668 18.3606C137.577 18.077 137.532 17.6535 137.532 17.0864V9.75924C138.163 8.99399 138.906 8.25963 140.113 8.25963C140.79 8.25963 141.319 8.48321 141.705 8.93037C142.089 9.37752 142.282 10.041 142.282 10.9171V17.0864C142.282 17.6535 142.231 18.0789 142.131 18.3606C142.031 18.6442 141.856 18.8532 141.609 18.9913C141.361 19.1277 140.983 19.2331 140.469 19.3058V19.6893H147.524V19.3058C146.92 19.2331 146.475 19.1277 146.193 18.9913C145.904 18.855 145.709 18.646 145.598 18.3624ZM125.664 18.5078C121.616 18.5351 118.406 15.2851 118.406 10.0119C118.406 4.43883 121.396 1.18878 124.816 1.18878C128.235 1.18878 129.702 4.26615 130.45 7.28898L130.998 7.27989V1.71773C129.713 1.00701 127.606 0.2054 124.543 0.2054C118.635 0.2054 114.176 4.52244 114.176 10.2864C114.176 15.7776 117.896 20.1201 124.297 20.0929C127.826 20.0656 130.287 17.9625 131.462 16.3502L131.08 15.9412C130.287 16.8428 128.699 18.4806 125.664 18.5078ZM166.412 12.0714L164.519 11.1661C163.261 10.6045 162.542 9.86103 162.542 8.94673C162.542 7.91064 163.492 7.20173 164.821 7.20173C166.756 7.20173 167.759 8.27054 168.173 10.6463H168.745V7.19264C168.177 6.9727 166.677 6.45284 165.15 6.45284C162.131 6.45284 160.293 8.3487 160.293 10.5372C160.293 11.3788 160.517 12.1132 160.964 12.7439C161.412 13.3746 162.086 13.9181 162.981 14.3744L164.958 15.3614C166.31 15.9776 166.852 16.5847 166.852 17.499C166.852 18.5097 166.037 19.3004 164.492 19.3004C162.233 19.3004 161.159 17.1609 160.864 15.4432H160.293V18.9786C161.154 19.5348 162.774 20.0474 164.273 20.0474C167.167 20.0474 169.185 18.277 169.185 15.7722C169.184 13.9672 168.219 12.8384 166.412 12.0714ZM16.3855 11.3861V16.2921C16.3855 17.0591 16.4947 17.6481 16.7149 18.0607C16.9351 18.4715 17.3009 18.7696 17.8123 18.9514C18.3238 19.1349 19.1027 19.2531 20.1456 19.3076V19.6912H9.52406V19.3076C10.4195 19.2531 11.0929 19.1349 11.5406 18.9514C11.9883 18.7696 12.305 18.4769 12.487 18.0734C12.669 17.6717 12.7618 17.0773 12.7618 16.2921V4.12255C12.7618 1.61594 11.628 1.10698 9.90626 1.10698C8.0171 1.10698 6.8614 1.61412 6.8614 4.04075V17.6572C6.8614 20.7345 4.8594 23.661 0.90636 23.661C0.6006 23.661 0.29848 23.6428 0 23.6083V23.2793C0.93912 23.223 1.69988 22.9049 2.27864 22.3177C2.91928 21.6688 3.2396 20.6055 3.2396 19.124V4.03893C3.2396 3.27186 3.1486 2.68111 2.96478 2.27031C2.78096 1.85951 2.46064 1.56322 2.00382 1.37964C1.547 1.19787 0.87906 1.0779 0 1.02337V0.639831H18.7551C23.0212 0.639831 25.662 2.77018 25.662 5.98569C25.662 9.66654 22.042 11.3861 18.8061 11.3861H16.3855ZM16.3855 10.6499H17.694C19.9199 10.6499 21.7927 9.34844 21.7927 6.01296C21.7927 1.93585 19.0973 1.376 17.7614 1.376H16.3855V10.6499ZM97.9342 18.5969C98.3874 18.5969 98.786 18.3988 99.0389 18.2279V18.8786C98.533 19.3512 97.5939 20.0383 96.1815 20.0383C94.9913 20.0383 93.9921 19.284 93.7264 18.1334H93.6554C93.1913 19.0095 91.7735 20.1165 90.2265 20.1165C88.3701 20.1165 87.0033 18.8805 87.0033 17.001C87.0033 15.5323 88.0097 14.5543 89.6841 13.9618L93.6554 12.5331V10.6917C93.6554 9.01762 92.4433 8.24509 91.1292 8.24509C89.7879 8.24509 88.5503 8.81222 87.2617 10.1246L86.8759 9.76469C88.0097 7.93608 89.8152 6.44193 92.4196 6.44193C94.8948 6.44193 96.8804 8.06514 96.8549 10.6917L96.804 17.2591C96.8003 18.1843 97.188 18.5969 97.9342 18.5969ZM93.6554 13.391L92.0574 14.0381C90.8198 14.5271 90.0208 15.0942 90.0208 16.4066C90.0208 17.5136 90.7943 18.2861 91.8772 18.2861C92.4451 18.2861 93.2695 17.848 93.6572 17.359V13.391H93.6554ZM158.524 18.5969C158.979 18.5969 159.376 18.397 159.63 18.2279V18.8786C159.124 19.3512 158.185 20.0402 156.771 20.0402C155.581 20.0402 154.582 19.2858 154.316 18.1352H154.245C153.781 19.0113 152.363 20.1183 150.816 20.1183C148.96 20.1183 147.593 18.8823 147.593 17.0028C147.593 15.5341 148.599 14.5562 150.274 13.9636L154.245 12.5349V10.6917C154.245 9.01762 153.033 8.24509 151.719 8.24509C150.378 8.24509 149.14 8.81222 147.851 10.1246L147.464 9.76469C148.598 7.93608 150.403 6.44193 153.007 6.44193C155.483 6.44193 157.468 8.06514 157.443 10.6917L157.392 17.2591C157.39 18.1843 157.776 18.5969 158.524 18.5969ZM154.243 13.391L152.645 14.0381C151.408 14.5271 150.609 15.0942 150.609 16.4066C150.609 17.5136 151.382 18.2861 152.465 18.2861C153.033 18.2861 153.857 17.848 154.245 17.359V13.391H154.243ZM83.7437 7.3526C84.9176 8.26691 85.4363 9.58292 85.4363 10.7063C85.4363 13.6564 82.9119 15.1851 80.0381 15.1851C79.281 15.1851 78.5494 15.0778 77.8814 14.867C77.5102 15.1524 77.1917 15.525 77.1917 15.9612C77.1917 16.8992 78.7223 17.0882 79.6359 17.1409L82.7518 17.3554C85.2488 17.5172 86.8322 18.4006 86.8322 20.6273C86.8322 23.4429 83.498 25.7768 78.6422 25.7768C75.823 25.7768 73.8083 24.8116 73.8083 23.0939C73.8083 21.6016 74.6309 20.7472 76.7458 19.733C75.3626 19.3313 75.0422 18.5078 75.0422 17.7026C75.0422 16.6011 76.0269 15.6122 77.3609 14.6743C75.763 14.0018 74.64 12.6694 74.64 10.7026C74.64 7.7525 77.1644 6.22381 80.0381 6.22381C81.3595 6.22381 82.4114 6.52373 83.2213 6.99451C83.8256 5.78211 85.0177 4.37157 87.1543 4.37157V6.88909C86.0132 6.53645 84.6209 6.72004 83.7437 7.3526ZM76.0633 21.9178C76.0633 23.4738 77.8359 24.17 80.1455 24.17C82.3477 24.17 85.3271 23.1775 85.3271 21.5943C85.3271 20.6818 84.8175 20.4673 83.4743 20.3601L78.078 19.9602C77.7613 19.9365 77.4756 19.9002 77.219 19.8511C76.4418 20.4564 76.0633 21.0781 76.0633 21.9178ZM82.1057 10.7081C82.1057 8.18693 81.2739 6.97997 80.0381 6.97997C78.8024 6.97997 77.9706 8.18693 77.9706 10.7081C77.9706 13.2292 78.8024 14.4362 80.0381 14.4362C81.2739 14.4362 82.1057 13.2292 82.1057 10.7081Z" fill="black"/>
</g>
</svg>
