<svg width="99" height="42" viewBox="0 0 99 42" fill="none" xmlns="http://www.w3.org/2000/svg">
<path d="M7.02077 0.851821V4.10302C8.29785 2.76735 9.67924 1.76398 11.1618 1.09615C12.6475 0.428318 14.2344 0.0927734 15.9255 0.0927734C19.6019 0.0927734 22.725 1.54571 25.2982 4.45485C27.8713 7.36399 29.1547 11.0908 29.1547 15.6418C29.1547 20.1929 27.8239 23.7014 25.1686 26.6529C22.5101 29.6044 19.3585 31.0801 15.7169 31.0801C14.0953 31.0801 12.5843 30.7772 11.1871 30.1745C9.78988 29.5685 8.399 28.5815 7.01761 27.2067V41.8306H0V0.851821H7.01761H7.02077ZM14.4525 6.92094C12.2271 6.92094 10.3778 7.71582 8.9111 9.30558C7.44435 10.8953 6.71098 12.9705 6.71098 15.5343C6.71098 18.0981 7.44435 20.271 8.9111 21.8869C10.3778 23.5027 12.2239 24.3106 14.4525 24.3106C16.681 24.3106 18.426 23.4897 19.9022 21.8445C21.3784 20.2026 22.1149 18.1047 22.1149 15.5604C22.1149 13.0161 21.3911 10.9605 19.9401 9.34468C18.4892 7.72885 16.6589 6.92094 14.4525 6.92094Z" fill="#0D352A"/>
<path d="M31.582 0.852051H38.6502V30.3246H31.582V0.852051Z" fill="#0D352A"/>
<path d="M70.5681 12.9383L48.9336 20.1509C49.8535 22.0436 51.1717 23.3532 52.8882 24.0764C54.6046 24.8029 56.5139 24.8159 58.6192 24.1122C61.1354 23.2717 63.0163 21.6331 64.2649 19.1866L70.7894 20.0824C70.0149 22.6528 68.7947 24.7703 67.1257 26.435C65.4598 28.0997 63.2692 29.3832 60.5538 30.2889C56.3432 31.6929 52.4899 31.4453 48.9969 29.5494C45.5039 27.6534 43.1172 24.6139 41.8465 20.4343C40.541 16.1504 40.778 12.1532 42.5546 8.44264C44.3311 4.73211 47.2108 2.2139 51.1906 0.888009C55.417 -0.52258 59.2862 -0.252189 62.795 1.69592C66.3038 3.64403 68.7663 6.94084 70.1824 11.5863L70.5681 12.9383ZM62.1438 9.63497C61.2208 8.21786 59.9563 7.23729 58.3473 6.69325C56.7384 6.14922 55.0693 6.1655 53.3402 6.74212C51.4625 7.3676 49.9831 8.46871 48.902 10.0422C48.2224 11.026 47.7672 12.5148 47.5396 14.5052L62.1438 9.63497Z" fill="#0D352A"/>
<path d="M11.6641 35.8364C11.6641 35.7484 11.7336 35.667 11.8284 35.667H13.801C14.8662 35.667 15.7387 36.5596 15.7387 37.6379C15.7387 38.7162 14.8662 39.6447 13.8104 39.6447H12.5555V41.7394C12.5555 41.8273 12.4765 41.9088 12.3911 41.9088H11.8284C11.7336 41.9088 11.6641 41.8273 11.6641 41.7394V35.8364ZM13.7504 38.7716C14.3478 38.7716 14.8504 38.2732 14.8504 37.6314C14.8504 37.0255 14.3478 36.5596 13.7504 36.5596H12.5555V38.7716H13.7504Z" fill="#0D352A"/>
<path d="M17.6699 35.8364C17.6699 35.7484 17.749 35.667 17.8343 35.667H18.4065C18.4918 35.667 18.5708 35.7484 18.5708 35.8364V41.7394C18.5708 41.8273 18.4918 41.9088 18.4065 41.9088H17.8343C17.749 41.9088 17.6699 41.8273 17.6699 41.7394V35.8364Z" fill="#0D352A"/>
<path d="M21.1123 35.8364C21.1123 35.7484 21.1818 35.667 21.2767 35.667H24.7381C24.8329 35.667 24.9024 35.7484 24.9024 35.8364V36.3348C24.9024 36.4228 24.8329 36.5042 24.7381 36.5042H22.0037V38.322H24.3145C24.3998 38.322 24.4789 38.4035 24.4789 38.4914V38.9899C24.4789 39.0876 24.3998 39.1593 24.3145 39.1593H22.0037V41.0781H24.7381C24.8329 41.0781 24.9024 41.1595 24.9024 41.2474V41.7361C24.9024 41.8241 24.8329 41.9055 24.7381 41.9055H21.2767C21.1818 41.9055 21.1123 41.8241 21.1123 41.7361V35.8331V35.8364Z" fill="#0D352A"/>
<path d="M27.0742 35.8364C27.0742 35.7484 27.1438 35.667 27.2386 35.667H29.5936C30.6336 35.667 31.4808 36.514 31.4808 37.576C31.4808 38.397 30.9529 39.0746 30.2005 39.3873L31.3859 41.6514C31.446 41.7687 31.3859 41.9088 31.2374 41.9088H30.5641C30.4945 41.9088 30.4439 41.8632 30.425 41.8273L29.2743 39.4655H27.9688V41.7394C27.9688 41.8273 27.8898 41.9088 27.8044 41.9088H27.2418C27.1469 41.9088 27.0774 41.8273 27.0774 41.7394V35.8364H27.0742ZM29.5241 38.6999C30.0867 38.6999 30.5799 38.208 30.5799 37.5923C30.5799 37.0124 30.0867 36.5303 29.5241 36.5303H27.9846V38.6967H29.5241V38.6999Z" fill="#0D352A"/>
<path d="M33.6904 35.8364C33.6904 35.7484 33.7695 35.667 33.8548 35.667H34.427C34.5123 35.667 34.5913 35.7484 34.5913 35.8364V41.7394C34.5913 41.8273 34.5123 41.9088 34.427 41.9088H33.8548C33.7695 41.9088 33.6904 41.8273 33.6904 41.7394V35.8364Z" fill="#0D352A"/>
<path d="M36.3208 41.677L38.9761 35.6763C39.0014 35.6242 39.0804 35.5786 39.1215 35.5786H39.2068C39.2511 35.5786 39.3269 35.6242 39.3522 35.6763L41.9917 41.677C42.0423 41.7943 41.9759 41.9083 41.8432 41.9083H41.2995C41.1951 41.9083 41.1351 41.8562 41.1003 41.7748L40.5629 40.5531H37.7338C37.5599 40.9636 37.3797 41.3643 37.2059 41.7748C37.1806 41.8367 37.111 41.9083 37.0067 41.9083H36.463C36.3334 41.9083 36.2639 41.7911 36.3144 41.677H36.3208ZM40.2405 39.7876L39.1752 37.3443H39.131L38.0752 39.7876H40.2373H40.2405Z" fill="#0D352A"/>
<path d="M43.7275 35.7382C43.7275 35.6503 43.8066 35.5786 43.8919 35.5786H44.1069L47.8622 40.0547H47.8717V35.836C47.8717 35.748 47.9413 35.6666 48.0361 35.6666H48.5893C48.6746 35.6666 48.7537 35.748 48.7537 35.836V41.8367C48.7537 41.9246 48.6746 41.9963 48.5893 41.9963H48.3648L44.6095 37.3932H44.6V41.7357C44.6 41.8236 44.5305 41.9051 44.4356 41.9051H43.8919C43.8066 41.9051 43.7275 41.8236 43.7275 41.7357V35.735V35.7382Z" fill="#0D352A"/>
<path d="M53.6748 41.006C53.7538 40.8887 53.8202 40.7551 53.8992 40.6411C53.9782 40.5238 54.0983 40.488 54.1932 40.5694C54.2437 40.615 54.9107 41.1851 55.5777 41.1851C56.1752 41.1851 56.5545 40.8105 56.5545 40.3577C56.5545 39.8234 56.1056 39.4846 55.249 39.1165C54.367 38.7321 53.6748 38.2597 53.6748 37.227C53.6748 36.5299 54.1932 35.5786 55.5682 35.5786C56.4344 35.5786 57.0824 36.0412 57.1677 36.1064C57.2373 36.152 57.3068 36.2758 57.2183 36.4093C57.1488 36.5168 57.0729 36.6406 57.0034 36.7481C56.9338 36.8654 56.82 36.9175 56.6999 36.8361C56.6398 36.8003 56.0329 36.3898 55.5303 36.3898C54.8033 36.3898 54.5535 36.8622 54.5535 37.1912C54.5535 37.6994 54.9329 38.0121 55.6536 38.3151C56.6557 38.7353 57.5155 39.224 57.5155 40.3121C57.5155 41.2405 56.7094 41.9963 55.5872 41.9963C54.5314 41.9963 53.8644 41.4262 53.7253 41.2926C53.6463 41.221 53.5862 41.1591 53.6748 41.006Z" fill="#0D352A"/>
<path d="M59.5771 35.8364C59.5771 35.7484 59.6467 35.667 59.7415 35.667H63.2029C63.2977 35.667 63.3673 35.7484 63.3673 35.8364V36.3348C63.3673 36.4228 63.2977 36.5042 63.2029 36.5042H60.4686V38.322H62.7793C62.8647 38.322 62.9437 38.4035 62.9437 38.4914V38.9899C62.9437 39.0876 62.8647 39.1593 62.7793 39.1593H60.4686V41.0781H63.2029C63.2977 41.0781 63.3673 41.1595 63.3673 41.2474V41.7361C63.3673 41.8241 63.2977 41.9055 63.2029 41.9055H59.7415C59.6467 41.9055 59.5771 41.8241 59.5771 41.7361V35.8331V35.8364Z" fill="#0D352A"/>
<path d="M65.5352 35.8364C65.5352 35.7484 65.6047 35.667 65.6995 35.667H68.0545C69.0945 35.667 69.9417 36.514 69.9417 37.576C69.9417 38.397 69.4138 39.0746 68.6615 39.3873L69.8469 41.6514C69.9069 41.7687 69.8469 41.9088 69.6983 41.9088H69.025C68.9555 41.9088 68.9049 41.8632 68.8859 41.8273L67.7353 39.4655H66.4297V41.7394C66.4297 41.8273 66.3507 41.9088 66.2654 41.9088H65.7027C65.6079 41.9088 65.5383 41.8273 65.5383 41.7394V35.8364H65.5352ZM67.985 38.6999C68.5477 38.6999 69.0408 38.208 69.0408 37.5923C69.0408 37.0124 68.5477 36.5303 67.985 36.5303H66.4456V38.6967H67.985V38.6999Z" fill="#0D352A"/>
<path d="M71.349 35.8983C71.2984 35.781 71.3648 35.667 71.4976 35.667H72.1108C72.1804 35.667 72.2404 35.7191 72.2562 35.7647L74.1592 40.1789H74.2098L76.1127 35.7647C76.1285 35.7191 76.1823 35.667 76.2613 35.667H76.8746C77.0042 35.667 77.0737 35.7843 77.0231 35.8983L74.3678 41.899C74.3425 41.9511 74.2888 41.9967 74.2224 41.9967H74.1371C74.077 41.9967 74.0169 41.9511 73.9916 41.899L71.3521 35.8983H71.349Z" fill="#0D352A"/>
<path d="M78.7646 35.8364C78.7646 35.7484 78.8437 35.667 78.929 35.667H79.5012C79.5865 35.667 79.6656 35.7484 79.6656 35.8364V41.7394C79.6656 41.8273 79.5865 41.9088 79.5012 41.9088H78.929C78.8437 41.9088 78.7646 41.8273 78.7646 41.7394V35.8364Z" fill="#0D352A"/>
<path d="M84.8905 35.5757C85.763 35.5757 86.3952 35.8786 86.9831 36.4064C87.0622 36.4781 87.0622 36.5856 86.9926 36.6572L86.6133 37.0579C86.5532 37.1394 86.4742 37.1394 86.3983 37.0579C85.9906 36.6931 85.4374 36.4618 84.9 36.4618C83.6608 36.4618 82.7283 37.5336 82.7283 38.7813C82.7283 40.029 83.6703 41.091 84.9095 41.091C85.5417 41.091 85.9811 40.8336 86.3983 40.5013C86.4774 40.4394 86.5532 40.4492 86.607 40.4916L87.0053 40.8923C87.0748 40.9542 87.059 41.0714 86.9958 41.1333C86.4078 41.723 85.665 41.9999 84.8937 41.9999C83.1614 41.9999 81.7705 40.5828 81.7705 38.7976C81.7705 37.0123 83.1645 35.5789 84.8937 35.5789L84.8905 35.5757Z" fill="#0D352A"/>
<path d="M89.0918 35.8364C89.0918 35.7484 89.1613 35.667 89.2562 35.667H92.7176C92.8124 35.667 92.8819 35.7484 92.8819 35.8364V36.3348C92.8819 36.4228 92.8124 36.5042 92.7176 36.5042H89.9832V38.322H92.294C92.3793 38.322 92.4584 38.4035 92.4584 38.4914V38.9899C92.4584 39.0876 92.3793 39.1593 92.294 39.1593H89.9832V41.0781H92.7176C92.8124 41.0781 92.8819 41.1595 92.8819 41.2474V41.7361C92.8819 41.8241 92.8124 41.9055 92.7176 41.9055H89.2562C89.1613 41.9055 89.0918 41.8241 89.0918 41.7361V35.8331V35.8364Z" fill="#0D352A"/>
<path d="M94.665 41.006C94.744 40.8887 94.8104 40.7551 94.8894 40.6411C94.9685 40.5238 95.0886 40.488 95.1834 40.5694C95.234 40.615 95.901 41.1851 96.568 41.1851C97.1654 41.1851 97.5447 40.8105 97.5447 40.3577C97.5447 39.8234 97.0959 39.4846 96.2392 39.1165C95.3573 38.7321 94.665 38.2597 94.665 37.227C94.665 36.5299 95.1834 35.5786 96.5585 35.5786C97.4246 35.5786 98.0726 36.0412 98.158 36.1064C98.2275 36.152 98.2971 36.2758 98.2086 36.4093C98.139 36.5168 98.0632 36.6406 97.9936 36.7481C97.9241 36.8654 97.8103 36.9175 97.6901 36.8361C97.6301 36.8003 97.0232 36.3898 96.5206 36.3898C95.7935 36.3898 95.5438 36.8622 95.5438 37.1912C95.5438 37.6994 95.9231 38.0121 96.6438 38.3151C97.6459 38.7353 98.5057 39.224 98.5057 40.3121C98.5057 41.2405 97.6996 41.9963 96.5774 41.9963C95.5216 41.9963 94.8547 41.4262 94.7156 41.2926C94.6365 41.221 94.5765 41.1591 94.665 41.006Z" fill="#0D352A"/>
</svg>
