<svg width="23" height="23" viewBox="0 0 23 23" fill="none" xmlns="http://www.w3.org/2000/svg">
<path d="M7.18606 1.79639V11.9766C7.18606 12.1355 7.12297 12.2878 7.01066 12.4001C6.89836 12.5124 6.74604 12.5755 6.58722 12.5755H2.99419C2.67654 12.5755 2.37191 12.4493 2.1473 12.2247C1.92269 12.0001 1.79651 11.6955 1.79651 11.3778V2.99406C1.79651 2.67642 1.92269 2.37179 2.1473 2.14718C2.37191 1.92257 2.67654 1.79639 2.99419 1.79639H11.3779C11.6956 1.79639 12.0002 1.92257 12.2248 2.14718C12.4494 2.37179 12.5756 2.67642 12.5756 2.99406V6.5871C12.5756 6.74592 12.5125 6.89824 12.4002 7.01054C12.2879 7.12285 12.1356 7.18594 11.9768 7.18594H1.79651M9.58142 11.3778L10.7791 12.5755L13.1744 10.1801" stroke="#1C735A" stroke-width="1.19768" stroke-linecap="round" stroke-linejoin="round"/>
</svg>
